<?xml version="1.0" standalone="no"?>
<!DOCTYPE svg PUBLIC "-//W3C//DTD SVG 1.1//EN" "http://www.w3.org/Graphics/SVG/1.1/DTD/svg11.dtd" >
<svg xmlns="http://www.w3.org/2000/svg">
<metadata>Generated by IcoMoon</metadata>
<defs>
<font id="samsungIcon" horiz-adv-x="512">
<font-face units-per-em="512" ascent="480" descent="-32" />
<missing-glyph horiz-adv-x="512" />
<glyph unicode="&#x20;" d="" horiz-adv-x="256" />
<glyph unicode="&#x21;" d="M93.579 256.958l-12.39-65.433h18.037l9.157 59.377h0.366l8.923-59.377h17.979l-12.332 65.434-29.74-0.001zM194.648 256.958l-8.251-50.030h-0.38l-8.236 50.030h-27.297l-1.492-65.434h16.75l0.41 58.821h0.366l11.176-58.821h16.984l11.176 58.821h0.336l0.453-58.821h16.72l-1.477 65.434h-27.238zM39.746 240.121c-0.336 1.317-0.249 2.706-0.088 3.438 0.468 2.092 1.931 4.403 6.115 4.403 3.906 0 6.217-2.37 6.217-5.939v-4.037h16.691v4.579c0 14.263-13.078 16.486-22.557 16.486-2.092 0-4.081-0.146-6.012-0.41l-3.438-0.644c0 0-1.565-0.293-3.877-1.287-2.18-0.951-3.613-1.916-3.613-1.916-3.335-2.282-5.691-5.588-6.466-10.255-0.483-2.926-0.571-5.559 0.146-8.836 2.94-13.385 26.683-17.262 30.12-25.717 0.658-1.58 0.453-3.613 0.161-4.842-0.571-2.165-2.063-4.403-6.524-4.403-4.184 0-6.729 2.355-6.729 5.925v6.349l-17.949-0.001v-5.061c0-14.585 11.732-19.003 24.327-19.003 12.098 0 22.045 4.052 23.64 14.936 0.819 5.676 0.205 9.377-0.059 10.752-2.838 13.707-28.218 17.803-30.105 25.483zM257.346 239.945c-0.307 1.302-0.234 2.692-0.059 3.365 0.468 2.107 1.902 4.359 6.056 4.359 3.891 0 6.129-2.311 6.129-5.837v-3.994h16.56v4.549c0 14.117-12.976 16.296-22.323 16.296-11.776 0-21.431-3.789-23.157-14.351-0.483-2.911-0.556-5.486 0.161-8.748 2.853-13.224 26.39-17.086 29.813-25.468 0.658-1.551 0.453-3.555 0.132-4.769-0.541-2.18-2.048-4.359-6.466-4.359-4.125 0-6.627 2.341-6.627 5.866l-0.015 6.276-17.788 0.001-0.029-5.003c0-14.453 11.644-18.798 24.079-18.798 11.981 0 21.87 3.979 23.435 14.804 0.805 5.603 0.234 9.245-0.059 10.62-2.823 13.547-27.955 17.584-29.842 25.191zM409.395 205.597h-0.351l-15.389 51.361h-24.854v-64.761h16.472l-0.922 53.146h0.366l16.516-53.146h23.801v64.761h-16.545l0.906-51.361zM350.179 256.987h-16.94v-48.421c0.029-0.878 0-1.785-0.146-2.516-0.307-1.595-1.755-4.74-6.422-4.74-4.652 0-6.056 3.145-6.407 4.74-0.132 0.731-0.161 1.638-0.161 2.516v48.421h-16.881v-46.928c-0.059-1.214 0.059-3.686 0.117-4.301 1.17-12.215 11.059-16.179 23.347-16.179 12.317 0 22.177 3.964 23.376 16.179 0.059 0.614 0.176 3.087 0.146 4.301v46.928zM466.315 228.286v-9.552h6.89v-9.494c0.029-0.834-0.029-1.741-0.176-2.487-0.293-1.741-1.975-4.74-6.832-4.74s-6.524 2.999-6.832 4.74c-0.146 0.746-0.176 1.653-0.146 2.487v29.93c0 1.053 0.044 2.209 0.263 3.072 0.38 1.638 1.77 4.784 6.656 4.784 5.12 0 6.393-3.335 6.685-4.784 0.205-0.922 0.205-2.501 0.205-2.501v-3.657h16.881v2.194c0 0 0.059 2.209-0.161 4.301-1.214 12.259-11.615 16.165-23.464 16.165-11.893 0-22.016-3.935-23.493-16.165-0.132-1.083-0.278-3.145-0.278-4.301v-27.546c0-1.229 0.029-2.136 0.219-4.315 1.141-11.893 11.674-16.15 23.552-16.15 3.174 0 6.246 0.307 9.084 0.995 0 0 2.004 0.483 3.994 1.346s3.569 1.902 3.569 1.902c3.745 2.56 6.378 6.378 6.875 11.893 0.19 2.165 0.234 3.087 0.249 4.315v17.554h-23.74z" />
<glyph unicode="&#x22;" d="M521.853 281.528l-43.045 31.388v-23.891l20.978-15.448 0.116 0.077 10.363 7.555c2.934 2.133 6.822 2.451 10.054 0.801s5.278-4.969 5.278-8.607v-1.158c0.531 3.455-0.724 7.074-3.744 9.283zM39.6 281.528l10.537-7.681 20.929 15.342v23.882l-43.035-31.543c-0.27-0.203-0.406-0.492-0.646-0.714 0.637 0.598 1.37 1.11 2.171 1.515 3.232 1.65 7.11 1.342 10.044-0.801zM335.23 198.362h-120.567c-5.327 0-9.649-4.323-9.649-9.649s4.323-9.649 9.649-9.649h120.565c5.327 0 9.649 4.323 9.649 9.649s-4.322 9.649-9.647 9.649zM401.162 257.039h-252.431c-5.327 0-9.649-4.323-9.649-9.649 0-3.3 1.766-6.079 4.294-7.816 1.553-1.062 3.329-1.833 5.356-1.833h252.43c1.891 0 3.551 0.685 5.037 1.621 2.702 1.708 4.613 4.584 4.613 8.028-0.001 5.326-4.323 9.649-9.65 9.649zM401.162 315.715h-252.431c-5.327 0-9.649-4.323-9.649-9.649s4.323-9.649 9.649-9.649h252.43c5.327 0 9.649 4.323 9.649 9.649s-4.321 9.649-9.648 9.649zM520.319 282.011c-3.232 1.65-7.121 1.331-10.054-0.801l-31.457-22.926v78.023c0 27.413-22.289 49.712-49.683 49.712h-50.619l-97.862 71.345c-3.387 2.46-7.98 2.47-11.367 0l-97.881-71.336h-50.619c-27.413 0-49.712-22.309-49.712-49.712v-77.715l-31.466 22.927c-2.933 2.143-6.811 2.451-10.053 0.791-0.801-0.406-1.524-0.917-2.171-1.515-0.029-0.029-0.058-0.068-0.097-0.097-1.891-1.795-3.010-4.304-3.010-6.986v-278.752c0-5.327 4.323-9.649 9.649-9.649h482.021c5.327 0 9.649 4.323 9.649 9.649v278.445c0.009 3.638-2.036 6.947-5.268 8.597zM274.961 437.632l70.786-51.604h-141.581l70.795 51.604zM459.51 244.215l-184.336-134.373-184.809 134.682v91.783c0 16.77 13.644 30.414 30.414 30.414h308.337c16.76 0 30.386-13.644 30.386-30.414l-0.001-92.092z" horiz-adv-x="550" />
<glyph unicode="&#x23;" d="M514.842 247.52h-81.887c-9.171 0-16.596 7.436-16.596 16.596s7.425 16.596 16.596 16.596h81.887c9.171 0 16.596-7.436 16.596-16.596s-7.437-16.596-16.596-16.596zM514.842 200.703h-81.887c-9.171 0-16.596 7.436-16.596 16.596s7.425 16.596 16.596 16.596h81.887c9.171 0 16.596-7.436 16.596-16.596s-7.437-16.596-16.596-16.596zM514.842 153.884h-81.887c-9.171 0-16.596 7.436-16.596 16.596s7.425 16.596 16.596 16.596h81.887c9.171 0 16.596-7.436 16.596-16.596s-7.437-16.596-16.596-16.596zM496.59 61.271h-234.812c-34.058 0-58.956 32.29-64.169 65.303h-156.048v187.538h157.171c7.737 30.8 35.469 61.346 68.66 61.346h229.188c20.052 0 36.381-16.329 36.381-36.381v-7.136c0-20.063-16.329-36.392-36.381-36.392h-47.051v-154.404h47.051c20.052 0 36.381-16.317 36.381-36.359v-7.147c0.010-20.061-16.296-36.368-36.371-36.368zM74.751 159.753h155.037v-20.552c0-20.264 14.272-44.75 31.99-44.75h234.812c1.757 0 3.202 1.423 3.202 3.19v7.136c0 1.745-1.434 3.179-3.202 3.179h-80.23v220.773h80.23c1.757 0 3.202 1.434 3.202 3.213v7.135c0 1.757-1.434 3.202-3.202 3.202l-229.187-0.011c-17.573 0-37.626-23.843-37.626-44.761v-16.596l-155.026 0.011v-121.169z" horiz-adv-x="578" />
<glyph unicode="&#x24;" d="M472.196 262.156l-211.153 167.703c-6.772 6.784-17.745 6.772-24.506 0l-211.166-167.727c-6.772-6.761-6.796-17.734 0-24.506h44.044v-210.106c0-9.565 7.75-17.315 17.327-17.315h84.026v210.106c0 9.565 7.75 17.327 17.327 17.327h121.356c9.588 0 17.338-7.761 17.338-17.327v-210.106h84.015c9.588 0 17.338 7.75 17.338 17.315l-0.001 210.129h44.044c6.784 6.75 6.795 17.723 0.011 24.507z" horiz-adv-x="500" />
<glyph unicode="&#x25;" d="M262.122-32l-262.244 256 262.244 256z" horiz-adv-x="262" />
<glyph unicode="&#x26;" d="M-0.122 480l262.244-256-262.244-256z" horiz-adv-x="262" />
<glyph unicode="&#x27;" d="M512 247.273h-232.727v232.727h-46.546v-232.727h-232.727v-46.546h232.727v-232.727h46.546v232.727h232.727z" />
<glyph unicode="&#x28;" d="M0 247.273h512v-46.546h-512z" />
<glyph unicode="&#x29;" d="M256.288 246.208c64.704 0 117.472 52.384 117.472 116.704 0 64.704-52.768 117.088-117.472 117.088-65.312 0-117.888-52.384-117.888-117.088 0-64.288 52.576-116.704 117.888-116.704zM493.632-32v100.448c0 79.744-65.056 144.864-146.048 144.864h-182.976c-80.768 0-146.24-65.12-146.24-144.864v-100.448h475.264z" />
<glyph unicode="&#x2a;" d="M305.761 311.121h11.022v-11.090h-11.022zM273 469.7c-102.614 0-185.777-83.197-185.777-185.811 0-71.458 40.404-133.395 99.543-164.449l86.234-141.14 86.097 141.141c59.241 31.053 99.645 92.99 99.645 164.483 0 102.614-83.162 185.776-185.742 185.776zM245.427 367.052h55.112v-15.595h-55.112v15.595zM356.709 224.717c0-14.299-11.671-25.901-25.935-25.901h-115.547c-14.265 0-25.901 11.602-25.901 25.901v95.789c0 2.218 1.809 4.061 4.061 4.061h33.545v26.89l15.595 15.595v-42.52h60.913v42.52l15.629-15.595v-26.924h33.511c2.184 0 4.061-1.843 4.061-4.061v-95.789h0.068zM229.183 311.121h11.057v-11.090h-11.057z" horiz-adv-x="546" />
<glyph unicode="&#x2b;" d="M478.822 341.424h-445.659c-18.183 0-32.914 14.746-32.914 32.914 0 18.183 14.731 32.914 32.914 32.914h445.659c18.183 0 32.914-14.731 32.914-32.914 0.001-18.169-14.716-32.914-32.914-32.914zM478.822 191.086h-445.659c-18.183 0-32.914 14.746-32.914 32.914 0 18.183 14.731 32.914 32.914 32.914h445.659c18.183 0 32.914-14.731 32.914-32.914 0.001-18.169-14.716-32.914-32.914-32.914zM478.822 40.748h-445.659c-18.183 0-32.914 14.746-32.914 32.914s14.731 32.914 32.914 32.914h445.659c18.183 0 32.914-14.746 32.914-32.914s-14.716-32.914-32.914-32.914z" />
<glyph unicode="&#x2c;" d="M38.187-22.4c-7.693 0-14.925 2.995-20.365 8.435-5.44 5.427-8.435 12.672-8.435 20.365s2.995 14.925 8.435 20.365l197.248 197.248-197.235 197.235c-5.44 5.44-8.435 12.672-8.435 20.365s2.995 14.938 8.435 20.378c5.427 5.414 12.659 8.409 20.352 8.409s14.925-2.995 20.365-8.435l217.613-217.613c5.44-5.427 8.435-12.659 8.435-20.365 0-7.693-2.995-14.925-8.448-20.365l-217.6-217.587c-5.44-5.44-12.672-8.435-20.365-8.435zM38.187 460.8c4.915 0 9.83-1.869 13.581-5.619l217.6-217.613c3.75-3.75 5.619-8.666 5.619-13.581s-1.869-9.83-5.619-13.568l-217.6-217.613c-3.75-3.737-8.666-5.606-13.581-5.606s-9.83 1.869-13.581 5.619c-7.488 7.501-7.488 19.648 0 27.136l204.045 204.045-204.045 204.032c-7.488 7.501-7.488 19.661 0 27.149 3.751 3.75 8.666 5.619 13.581 5.619zM38.187 480c-10.253 0-19.891-3.994-27.136-11.251-7.257-7.245-11.251-16.871-11.251-27.136 0-10.266 3.994-19.904 11.251-27.149l190.477-190.464-190.477-190.477c-7.257-7.245-11.251-16.883-11.251-27.136 0-10.266 3.994-19.904 11.251-27.149 7.245-7.244 16.883-11.238 27.136-11.238s19.904 4.006 27.136 11.251l217.613 217.613c7.245 7.232 11.251 16.883 11.251 27.149s-4.006 19.917-11.264 27.149l-217.6 217.587c-7.232 7.257-16.883 11.251-27.136 11.251z" horiz-adv-x="294" />
<glyph unicode="&#x2d;" d="M255.8 470.4c7.706 0 14.925-2.995 20.365-8.435 5.427-5.415 8.422-12.672 8.422-20.352s-2.982-14.925-8.435-20.365l-197.248-197.248 197.248-197.248c5.453-5.44 8.435-12.672 8.435-20.365s-2.982-14.938-8.435-20.378c-5.44-5.427-12.659-8.422-20.365-8.422-7.693 0-14.925 2.995-20.365 8.435l-217.587 217.613c-5.44 5.427-8.435 12.659-8.435 20.365 0 7.693 2.995 14.925 8.448 20.365l217.587 217.587c5.44 5.44 12.672 8.448 20.365 8.448zM255.8-12.8c-4.915 0-9.83 1.869-13.581 5.606l-217.613 217.6c-3.737 3.751-5.606 8.679-5.606 13.581 0 4.915 1.869 9.83 5.619 13.568l217.6 217.626c3.751 3.737 8.666 5.619 13.581 5.619s9.843-1.869 13.594-5.619c7.488-7.501 7.488-19.648 0-27.136l-204.071-204.058 204.045-204.032c7.488-7.501 7.488-19.661 0-27.149-3.738-3.75-8.653-5.606-13.568-5.606zM255.8-32c10.253 0 19.917 3.994 27.136 11.251 7.258 7.232 11.251 16.883 11.251 27.136s-3.994 19.904-11.251 27.149l-190.464 190.451 190.464 190.477c7.258 7.245 11.251 16.896 11.251 27.136 0 10.266-3.994 19.904-11.251 27.149-7.219 7.245-16.883 11.251-27.136 11.251s-19.904-4.006-27.136-11.251l-217.613-217.613c-7.245-7.232-11.251-16.883-11.251-27.149 0-10.253 4.006-19.904 11.264-27.149l217.6-217.6c7.232-7.257 16.883-11.238 27.136-11.238z" horiz-adv-x="294" />
<glyph unicode="&#x2e;" d="M430.942 228.096c-3.183 3.43-79.232 83.959-174.942 83.959-95.701 0-171.75-80.529-174.95-83.959-2.142-2.313-2.142-5.888 0.009-8.192 3.191-3.43 79.351-83.959 174.942-83.959 95.71 0 171.759 80.538 174.942 83.959 2.149 2.304 2.149 5.879-0.001 8.192zM93.935 224c12.638 12.279 53.453 48.964 106.172 66.492-18.961-15.966-31.053-39.834-31.053-66.492 0-26.675 12.092-50.543 31.061-66.5-52.727 17.527-93.534 54.212-106.18 66.5zM256 149.094c-41.31 0-74.914 33.604-74.914 74.906s33.604 74.914 74.914 74.914 74.906-33.604 74.906-74.914-33.596-74.906-74.906-74.906zM311.876 157.5c18.97 15.957 31.061 39.825 31.061 66.5 0 26.667-12.092 50.534-31.044 66.492 52.727-17.536 93.534-54.221 106.172-66.492-12.638-12.288-53.444-48.973-106.189-66.5zM256.009 286.037c-34.21 0-62.046-27.827-62.046-62.037s27.836-62.037 62.046-62.037c34.21 0 62.029 27.827 62.029 62.037-0.001 34.202-27.819 62.037-62.029 62.037zM256.009 173.995c-27.58 0-50.022 22.434-50.022 50.005s22.443 50.005 50.022 50.005c27.571 0 49.997-22.434 49.997-50.005s-22.426-50.005-49.997-50.005zM256 439.211c-118.665 0-215.211-96.538-215.211-215.211 0-118.665 96.538-215.211 215.211-215.211s215.211 96.546 215.211 215.211c0 118.673-96.546 215.211-215.211 215.211zM256 20.813c-112.034 0-203.187 91.144-203.187 203.187 0 112.034 91.153 203.187 203.187 203.187 112.043 0 203.187-91.145 203.187-203.187s-91.144-203.187-203.187-203.187z" />
<glyph unicode="&#x2f;" d="M777.705 53.998l-55.457-55.457-388.921 388.92 55.457 55.458zM55.381-1.539l-55.446 55.455 333.487 333.487 55.456-55.456z" horiz-adv-x="791" />
<glyph unicode="&#x30;" d="M777.705 387.381l-55.457 55.458-388.921-388.921 55.457-55.457zM55.381 442.919l-55.446-55.456 333.487-333.486 55.456 55.455z" horiz-adv-x="791" />
<glyph unicode="&#x31;" d="M287.935-32h-95.935v256h-64v88.225l64 0.029-0.104 51.976c0 71.976 19.517 115.77 104.299 115.77h70.588v-88.242h-44.115c-33.016 0-34.603-12.328-34.603-35.342l-0.131-44.162h79.345l-9.352-88.225-69.927-0.029-0.065-256z" />
<glyph unicode="&#x32;" d="M512 382.791c-18.838-8.354-39.082-14.001-60.33-16.54 21.686 13 38.343 33.585 46.186 58.115-20.298-12.039-42.778-20.78-66.705-25.49-19.16 20.415-46.461 33.17-76.673 33.17-58.011 0-105.044-47.029-105.044-105.039 0-8.233 0.929-16.25 2.72-23.939-87.3 4.382-164.701 46.2-216.509 109.753-9.042-15.514-14.223-33.558-14.223-52.809 0-36.444 18.544-68.596 46.73-87.433-17.219 0.546-33.416 5.271-47.577 13.139-0.010-0.438-0.010-0.878-0.010-1.321 0-50.894 36.209-93.348 84.261-103-8.813-2.4-18.094-3.686-27.674-3.686-6.769 0-13.349 0.66-19.764 1.886 13.368-41.73 52.16-72.103 98.126-72.948-35.95-28.175-81.243-44.967-130.458-44.967-8.479 0-16.84 0.497-25.058 1.47 46.486-29.805 101.701-47.197 161.021-47.197 193.211 0 298.868 160.062 298.868 298.872 0 4.554-0.103 9.084-0.305 13.59 20.528 14.81 38.336 33.31 52.418 54.374z" />
<glyph unicode="&#x33;" d="M439.145 50.879c-6.198-6.471-16.449-6.689-22.942-0.501l-346.395 331.612c-6.46 6.199-6.689 16.471-0.49 22.942 6.188 6.482 16.46 6.7 22.942 0.501l346.406-331.634c6.481-6.177 6.677-16.439 0.479-22.92zM424.275 382.077l-324.118-338.584c-6.188-6.482-16.46-6.7-22.942-0.512-6.471 6.177-6.7 16.471-0.49 22.942l324.107 338.595c6.198 6.46 16.449 6.689 22.942 0.49 6.46-6.176 6.711-16.46 0.501-22.931z" horiz-adv-x="501" />
<glyph unicode="&#x34;" d="M386.101 457.658c-131.281 0-237.709-106.428-237.709-237.709s106.428-237.709 237.709-237.709c131.281 0 237.709 106.428 237.709 237.709s-106.429 237.709-237.709 237.709zM335.541 72.109v295.674l158.163-147.834-158.163-147.84z" horiz-adv-x="791" />
<glyph unicode="&#x35;" d="M254.566 6.903c-117.495 0-213.077 95.582-213.077 213.060 0 117.487 95.582 213.069 213.077 213.069 117.487 0 213.069-95.582 213.069-213.069 0-117.478-95.582-213.060-213.069-213.060zM254.566 420.233c-110.43 0-200.277-89.839-200.277-200.269s89.847-200.26 200.277-200.26c110.43 0 200.269 89.83 200.269 200.26s-89.839 200.269-200.269 200.269zM254.251 63.59c-1.075 0-2.142 0.256-3.115 0.802l-104.67 58.172c-2.039 1.126-3.294 3.268-3.294 5.598v127.932c0 2.219 1.152 4.275 3.038 5.444 1.877 1.161 4.241 1.263 6.221 0.282l104.678-52.352c2.167-1.084 3.541-3.302 3.541-5.726v-133.751c0-2.261-1.203-4.378-3.157-5.513-0.998-0.597-2.124-0.888-3.242-0.888zM155.972 131.925l91.878-51.055 0.001 118.921-91.878 45.943-0.001-113.809zM254.251 63.599c-1.118 0-2.244 0.282-3.243 0.879-1.954 1.152-3.157 3.251-3.157 5.521v133.734c0 2.432 1.374 4.651 3.541 5.734l104.678 52.352c1.988 0.99 4.352 0.887 6.229-0.282 1.886-1.161 3.029-3.226 3.029-5.444v-127.949c0-2.321-1.254-4.454-3.294-5.598l-104.687-58.138c-0.954-0.553-2.030-0.809-3.096-0.809zM260.651 199.782v-118.921l91.887 51.029v113.835l-91.887-45.943zM254.251 198.281c-0.973 0-1.937 0.222-2.825 0.666l-104.67 51.396c-2.202 1.075-3.593 3.319-3.584 5.76 0.009 2.449 1.417 4.685 3.618 5.743l55.364 26.701c1.698 0.828 3.695 0.862 5.436 0.060 1.732-0.785 3.021-2.313 3.516-4.139 5.41-19.934 23.603-33.852 44.245-33.852 20.292 0 38.409 13.628 44.058 33.135 0.529 1.809 1.826 3.294 3.541 4.062 1.732 0.768 3.721 0.734 5.402-0.085l53.367-25.882c2.219-1.067 3.618-3.302 3.618-5.743 0-2.449-1.382-4.685-3.584-5.76l-104.687-51.396c-0.887-0.436-1.851-0.666-2.815-0.666zM164.198 256.043l90.052-44.228 90.086 44.237-35.183 17.067c-9.207-21.103-30.379-35.294-53.794-35.294-23.834 0-45.116 14.507-54.127 36.079l-37.034-17.861zM255.351 237.824c-32.367 0-58.701 26.334-58.701 58.701 0 32.375 26.334 58.709 58.701 58.709s58.701-26.334 58.701-58.709c0-32.367-26.334-58.701-58.701-58.701zM255.351 342.434c-25.31 0-45.901-20.599-45.901-45.909s20.591-45.901 45.901-45.901 45.901 20.591 45.901 45.901c0 25.31-20.591 45.909-45.901 45.909zM280.704 290.125h-50.705c-3.533 0-6.4 2.867-6.4 6.4s2.867 6.4 6.4 6.4h50.705c3.533 0 6.4-2.867 6.4-6.4s-2.867-6.4-6.4-6.4zM255.351 264.772c-3.533 0-6.4 2.867-6.4 6.4v50.697c0 3.533 2.867 6.4 6.4 6.4s6.4-2.867 6.4-6.4v-50.697c0-3.533-2.867-6.4-6.4-6.4z" />
<glyph unicode="&#x36;" d="M174.908 361.779l15.018-30.43 33.647-4.915-24.328-23.705 5.726-33.451-30.063 15.846-30.063-15.846 5.785 33.451-24.328 23.705 33.57 4.915zM224.572 6.869c-2.039 0-4.019 0.981-5.231 2.714l-44.433 63.164-44.399-63.164c-1.604-2.287-4.463-3.268-7.168-2.415-2.654 0.836-4.463 3.302-4.463 6.101v169.045c0 2.193 1.126 4.224 2.978 5.402 1.852 1.195 4.173 1.323 6.153 0.384 29.781-14.029 63.949-14.046 93.85 0.009 1.997 0.939 4.318 0.785 6.161-0.393 1.852-1.178 2.97-3.209 2.97-5.402v-169.045c0-2.799-1.809-5.265-4.463-6.101-0.658-0.205-1.307-0.299-1.955-0.299zM174.908 90.274c2.082 0 4.036-1.015 5.231-2.705l38.033-54.084v139.161c-27.861-10.53-58.726-10.53-86.502-0.017v-139.136l37.999 54.050c1.194 1.716 3.157 2.731 5.239 2.731zM174.908 197.163c-65.289 0-118.409 53.086-118.409 118.34 0 65.314 53.12 118.46 118.409 118.46 65.314 0 118.451-53.146 118.451-118.46 0-65.254-53.137-118.34-118.451-118.34zM174.908 421.163c-58.231 0-105.609-47.403-105.609-105.66 0-58.197 47.377-105.54 105.609-105.54 58.257 0 105.651 47.334 105.651 105.54 0 58.257-47.394 105.66-105.651 105.66zM307.379 6.869c-2.039 0-4.019 0.981-5.231 2.714l-49.681 70.605c-2.022 2.893-1.331 6.878 1.562 8.926 2.901 2.022 6.903 1.314 8.917-1.562l38.042-54.067v139.161c-13.926-5.265-28.442-7.936-43.273-7.936-3.533 0-6.4 2.867-6.4 6.4s2.867 6.4 6.4 6.4c16.205 0 32 3.567 46.95 10.581 1.997 0.93 4.318 0.785 6.161-0.384 1.852-1.186 2.97-3.217 2.97-5.402v-169.054c0-2.79-1.809-5.257-4.463-6.101-0.657-0.195-1.305-0.281-1.954-0.281zM257.707 197.154c-3.533 0-6.4 2.867-6.4 6.4s2.867 6.4 6.4 6.4c58.257 0 105.66 47.343 105.66 105.54 0 58.266-47.403 105.66-105.66 105.66-3.533 0-6.4 2.867-6.4 6.4 0 3.541 2.867 6.4 6.4 6.4 65.314 0 118.46-53.137 118.46-118.46-0.001-65.245-53.146-118.34-118.46-118.34zM391.185 6.869c-2.039 0-4.019 0.981-5.231 2.714l-49.664 70.605c-2.031 2.893-1.34 6.878 1.553 8.926 2.901 2.022 6.903 1.314 8.917-1.562l38.033-54.067 0.001 139.161c-13.926-5.265-28.433-7.936-43.264-7.936-3.533 0-6.4 2.867-6.4 6.4s2.867 6.4 6.4 6.4c16.205 0 32 3.567 46.942 10.581 1.988 0.93 4.309 0.785 6.161-0.384 1.852-1.186 2.97-3.217 2.97-5.402v-169.054c0-2.79-1.809-5.257-4.463-6.101-0.666-0.195-1.315-0.281-1.955-0.281zM341.513 197.154c-3.533 0-6.4 2.867-6.4 6.4s2.867 6.4 6.4 6.4c58.257 0 105.651 47.343 105.651 105.54 0 58.266-47.394 105.66-105.651 105.66-3.533 0-6.4 2.867-6.4 6.4 0 3.541 2.867 6.4 6.4 6.4 65.314 0 118.451-53.137 118.451-118.46 0-65.245-53.129-118.34-118.451-118.34z" />
<glyph unicode="&#x37;" d="M349.269 321.323h-185.455c-11.102 0-20.096-8.994-20.096-20.087v-107.486c0-11.102 8.994-20.096 20.096-20.096h106.419l68.864-62.498v62.498h10.163c11.119 0 20.096 9.003 20.096 20.096l0.001 107.494c0.008 11.093-8.977 20.079-20.088 20.079zM339.098 104.755c-1.57 0-3.098 0.572-4.301 1.655l-67.029 60.843h-103.962c-14.609 0-26.487 11.895-26.487 26.496l-0.001 107.495c0 14.601 11.878 26.487 26.487 26.487h185.464c14.618 0 26.505-11.887 26.505-26.487v-107.486c0-14.609-11.895-26.496-26.505-26.496h-3.763v-56.098c0-2.534-1.493-4.821-3.797-5.854-0.854-0.367-1.724-0.555-2.611-0.555zM163.806 314.923c-7.552 0-13.687-6.144-13.687-13.687v-107.486c0-7.561 6.135-13.696 13.687-13.696l106.445-0.001c1.587 0 3.115-0.589 4.301-1.655l58.146-52.796v48.051c0 3.533 2.867 6.4 6.4 6.4h10.163c7.561 0 13.705 6.144 13.705 13.696l-0.001 107.495c0 7.543-6.153 13.687-13.705 13.687h-185.454zM256.555 12.826c-116.873 0-211.951 95.087-211.951 211.959 0 116.855 95.078 211.934 211.951 211.934 116.864 0 211.925-95.078 211.925-211.934 0-116.872-95.061-211.959-211.925-211.959zM256.555 423.919c-109.815 0-199.151-89.335-199.151-199.134 0-109.815 89.335-199.159 199.151-199.159 109.798 0 199.125 89.344 199.125 199.159 0 109.798-89.318 199.134-199.125 199.134z" />
<glyph unicode="&#x38;" d="M252.331 7.629c-117.137 0-212.437 95.292-212.437 212.42 0 117.146 95.3 212.437 212.437 212.437 117.129 0 212.42-95.292 212.42-212.437 0-117.128-95.292-212.42-212.42-212.42zM252.331 419.686c-110.071 0-199.637-89.557-199.637-199.637 0-110.071 89.557-199.62 199.637-199.62 110.063 0 199.62 89.549 199.62 199.62 0 110.080-89.549 199.637-199.62 199.637zM270.566 229.939h-106.035c-3.533 0-6.4 2.867-6.4 6.4s2.867 6.4 6.4 6.4h106.035c3.533 0 6.4-2.867 6.4-6.4s-2.867-6.4-6.4-6.4zM196.651 197.845c-1.638 0-3.277 0.623-4.523 1.877l-32.119 32.094c-2.5 2.5-2.5 6.554 0 9.054s6.554 2.5 9.054 0l32.119-32.102c2.5-2.5 2.5-6.554 0-9.054-1.255-1.246-2.893-1.869-4.531-1.869zM164.531 229.939c-1.638 0-3.277 0.623-4.523 1.877-2.5 2.5-2.5 6.545 0 9.045l32.111 32.111c2.509 2.5 6.562 2.5 9.062 0s2.5-6.554 0-9.054l-32.119-32.102c-1.254-1.245-2.884-1.877-4.531-1.877zM340.113 197.376h-106.027c-3.533 0-6.4 2.867-6.4 6.4s2.867 6.4 6.4 6.4h106.035c3.533 0 6.4-2.867 6.4-6.4s-2.875-6.4-6.408-6.4zM340.113 197.376c-1.63 0-3.277 0.623-4.523 1.877l-32.102 32.077c-2.5 2.5-2.5 6.554 0 9.054 2.492 2.5 6.545 2.5 9.054 0l32.102-32.085c2.5-2.5 2.5-6.554 0-9.054-1.254-1.246-2.884-1.869-4.531-1.869zM308.019 165.257c-1.63 0-3.277 0.623-4.523 1.877-2.5 2.5-2.5 6.554 0 9.054l32.102 32.119c2.492 2.492 6.545 2.509 9.054 0 2.5-2.5 2.5-6.554 0-9.054l-32.102-32.119c-1.263-1.255-2.892-1.877-4.531-1.877zM231.398 113.792h-93.969c-3.533 0-6.4 2.867-6.4 6.4v199.714c0 3.533 2.867 6.4 6.4 6.4h93.969c3.533 0 6.4-2.867 6.4-6.4v-47.445c0-3.533-2.867-6.4-6.4-6.4s-6.4 2.867-6.4 6.4v41.045h-81.169v-186.914h81.169v41.062c0 3.533 2.867 6.4 6.4 6.4s6.4-2.867 6.4-6.4v-47.462c0-3.533-2.867-6.4-6.4-6.4zM367.215 113.792h-93.969c-3.533 0-6.4 2.867-6.4 6.4v47.462c0 3.533 2.867 6.4 6.4 6.4s6.4-2.867 6.4-6.4v-41.062h81.169v186.914h-81.169v-41.045c0-3.533-2.867-6.4-6.4-6.4s-6.4 2.867-6.4 6.4v47.445c0 3.533 2.867 6.4 6.4 6.4h93.969c3.533 0 6.4-2.867 6.4-6.4v-199.714c0-3.533-2.867-6.4-6.4-6.4z" />
<glyph unicode="&#x39;" d="M251.401 8.004c-117.641 0-213.35 95.71-213.35 213.367 0 117.632 95.71 213.342 213.35 213.342s213.35-95.71 213.35-213.342c0-117.657-95.71-213.367-213.35-213.367zM251.401 421.914c-110.583 0-200.55-89.958-200.55-200.542 0-110.592 89.967-200.567 200.55-200.567s200.55 89.975 200.55 200.567c0 110.583-89.967 200.542-200.55 200.542zM165.982 170.948v100.83h69.248v-18.287h-48.828v-22.98h40.363v-18.296h-40.363v-22.971h52.318v-18.296zM251.563 170.948v100.83h20.403v-38.545l38.699 38.545h24.2l-39.612-39.296 41.566-61.534h-22.972l-32.494 47.77-9.387-9.37v-38.4zM101.137 210.867c-3.456 0-6.298 2.748-6.4 6.221-2.338 86.391 66.022 158.575 152.388 160.93 64.947 2.031 124.877-37.376 149.385-97.408 1.34-3.268-0.23-7.006-3.507-8.346-3.26-1.331-6.997 0.23-8.346 3.507-22.511 55.126-77.457 90.94-137.182 89.456-79.326-2.159-142.089-68.454-139.938-147.78 0.094-3.55-2.688-6.477-6.221-6.579-0.068-0.001-0.128-0.001-0.179-0.001zM251.221 64.649c-63.155 0-119.424 37.137-144.179 95.582-1.382 3.251 0.145 6.997 3.388 8.38 3.268 1.382 7.006-0.154 8.388-3.396 23.279-54.912 76.698-89.233 136.465-87.714 38.426 1.050 74.155 16.998 100.582 44.911 26.436 27.913 40.405 64.435 39.356 102.861-0.094 3.533 2.688 6.477 6.221 6.571 3.533 0.179 6.485-2.688 6.579-6.221 1.143-41.847-14.080-81.613-42.854-112.009-28.791-30.396-67.686-47.753-109.534-48.887-1.468-0.061-2.944-0.078-4.412-0.078zM432.947 199.68c-1.638 0-3.277 0.631-4.523 1.886l-32.282 32.265c-2.5 2.5-2.5 6.554 0 9.054 2.492 2.5 6.554 2.5 9.054 0l32.282-32.273c2.5-2.492 2.5-6.545 0-9.045-1.254-1.247-2.884-1.887-4.531-1.887zM366.686 197.965c-1.638 0-3.277 0.614-4.523 1.869-2.5 2.5-2.5 6.554 0 9.054l33.98 33.997c2.5 2.5 6.554 2.5 9.054 0 2.5-2.492 2.5-6.545 0-9.045l-33.98-34.005c-1.263-1.256-2.893-1.87-4.531-1.87zM102.153 197.965c-1.638 0-3.277 0.614-4.523 1.869l-32.282 32.29c-2.5 2.5-2.5 6.554 0 9.054 2.492 2.5 6.554 2.5 9.054 0l32.282-32.29c2.5-2.5 2.5-6.545 0-9.054-1.263-1.255-2.893-1.869-4.531-1.869zM102.153 197.965c-1.63 0-3.277 0.614-4.523 1.869-2.5 2.5-2.5 6.554 0 9.054l33.98 34.005c2.492 2.5 6.545 2.509 9.054 0 2.5-2.492 2.5-6.545 0-9.045l-33.98-34.014c-1.263-1.255-2.893-1.869-4.531-1.869z" />
<glyph unicode="&#x3a;" d="M256.785 11.921c-117.521 0-213.137 95.607-213.137 213.129s95.607 213.128 213.137 213.128c117.513 0 213.111-95.607 213.111-213.129s-95.598-213.128-213.111-213.128zM256.785 425.378c-110.464 0-200.337-89.865-200.337-200.329s89.865-200.329 200.337-200.329c110.447 0 200.311 89.865 200.311 200.329s-89.864 200.329-200.311 200.329zM212.702 105.242c-3.533 0-6.4 2.867-6.4 6.4v208.29c0 3.533 2.867 6.4 6.4 6.4s6.4-2.867 6.4-6.4v-208.29c0-3.533-2.867-6.4-6.4-6.4zM212.702 324.164v-128.862l133.862 64.427zM212.702 188.902c-1.186 0-2.364 0.333-3.405 0.981-1.86 1.169-2.995 3.217-2.995 5.419v128.862c0 2.202 1.135 4.25 2.995 5.419 1.877 1.178 4.198 1.306 6.187 0.35l133.871-64.435c2.21-1.067 3.627-3.311 3.627-5.769 0-2.466-1.417-4.702-3.627-5.769l-133.871-64.435c-0.896-0.418-1.835-0.623-2.782-0.623zM219.102 313.984v-108.501l112.708 54.246-112.708 54.255z" />
<glyph unicode="&#x3b;" d="M170.3 110.387c-35.601 0-64.282 27.887-65.289 63.471v99.763c0 8.269 6.733 15.002 15.010 15.002h2.406c2.577 0 5.009-0.649 7.125-1.801v9.378c0 8.277 6.733 15.010 15.010 15.010h2.406c2.577 0 5.001-0.649 7.125-1.801v7.885c0 8.277 6.733 15.019 15.010 15.019h2.406c8.277 0 15.010-6.741 15.010-15.019v-35.072c0-3.533-2.867-6.4-6.4-6.4h-1.459c-1.22 0-2.202-0.99-2.202-2.202v-99.584c0.521-18.167 10.377-34.62 26.359-43.836 1.98-1.143 3.209-3.26 3.209-5.547s-1.226-4.401-3.206-5.545c-9.924-5.709-21.162-8.721-32.52-8.721zM120.013 275.823c-1.22 0-2.21-0.99-2.21-2.202v-99.584c0.811-28.433 23.868-50.85 52.489-50.85 5.598 0 11.17 0.913 16.478 2.679-14.123 11.887-22.579 29.133-23.117 47.991l-0.001 41.524c-0.93-0.538-2.014-0.836-3.166-0.836h-4.915c-3.533 0-6.4 2.867-6.4 6.4v75.247c0 1.22-0.99 2.21-2.21 2.21h-2.406c-1.22 0-2.21-0.99-2.21-2.21v-82.33c0-3.533-2.867-6.4-6.4-6.4h-4.924c-3.533 0-6.4 2.867-6.4 6.4v59.75c0 1.212-0.981 2.202-2.202 2.202h-2.406zM169.097 319.514c-1.22 0-2.21-0.998-2.21-2.219v-34.381c1.749 2.219 4.105 3.925 6.827 4.873v29.508c0 1.22-0.99 2.219-2.21 2.219h-2.407zM229.035 110.387c-35.601 0-64.282 27.887-65.289 63.471v99.763c0 8.269 6.733 15.002 15.019 15.002h2.389c2.577 0 5.001-0.649 7.125-1.801v9.378c0 8.277 6.733 15.010 15.019 15.010h2.398c2.586 0 5.009-0.649 7.134-1.801v7.885c0 8.277 6.733 15.019 15.010 15.019h2.406c8.277 0 15.010-6.741 15.010-15.019v-35.072c0-3.533-2.867-6.4-6.4-6.4h-1.459c-1.22 0-2.202-0.99-2.202-2.202v-99.584c0.521-18.167 10.377-34.62 26.359-43.836 1.98-1.143 3.209-3.26 3.209-5.547s-1.229-4.403-3.209-5.538c-9.923-5.716-21.161-8.728-32.519-8.728zM178.756 275.823c-1.229 0-2.219-0.99-2.219-2.202v-99.584c0.811-28.433 23.868-50.85 52.489-50.85 5.598 0 11.17 0.913 16.478 2.679-14.123 11.887-22.579 29.133-23.117 47.991v41.524c-0.93-0.538-2.014-0.836-3.166-0.836h-4.915c-3.533 0-6.4 2.867-6.4 6.4v75.247c0 1.246-0.973 2.21-2.219 2.21h-2.398c-1.229 0-2.219-0.99-2.219-2.21v-82.33c0-3.533-2.867-6.4-6.4-6.4h-4.907c-3.533 0-6.4 2.867-6.4 6.4v59.75c0 1.212-0.99 2.202-2.219 2.202h-2.388zM227.831 319.514c-1.22 0-2.21-0.998-2.21-2.219v-34.381c1.749 2.219 4.105 3.925 6.827 4.873v29.508c0 1.22-0.99 2.219-2.21 2.219h-2.407zM288.017 110.387c-35.61 0-64.299 27.887-65.297 63.471v99.763c0 8.269 6.733 15.002 15.019 15.002h2.398c2.577 0 5.001-0.649 7.125-1.801v9.378c0 8.277 6.733 15.010 15.010 15.010h2.406c2.586 0 5.009-0.649 7.134-1.801v7.885c0 8.277 6.733 15.019 15.010 15.019h2.398c8.286 0 15.019-6.741 15.019-15.019v-35.072c0-3.533-2.867-6.4-6.4-6.4h-1.459c-1.22 0-2.21-0.99-2.21-2.202v-99.584c0.512-18.167 10.368-34.62 26.359-43.836 1.98-1.143 3.209-3.26 3.209-5.547s-1.229-4.403-3.209-5.538c-9.924-5.716-21.163-8.728-32.512-8.728zM237.73 275.823c-1.237 0-2.219-0.99-2.219-2.202v-99.584c0.811-28.433 23.868-50.85 52.497-50.85 5.589 0 11.162 0.913 16.469 2.679-14.131 11.887-22.579 29.133-23.117 47.991l0.001 41.524c-0.93-0.538-2.005-0.836-3.157-0.836h-4.915c-3.533 0-6.4 2.867-6.4 6.4v75.247c0 1.22-0.99 2.21-2.219 2.21h-2.406c-1.22 0-2.21-0.99-2.21-2.21v-82.33c0-3.533-2.867-6.4-6.4-6.4h-4.915c-3.533 0-6.4 2.867-6.4 6.4v59.75c0 1.212-0.99 2.202-2.21 2.202h-2.399zM286.814 319.514c-1.22 0-2.21-0.998-2.21-2.219v-34.372c1.749 2.21 4.105 3.917 6.827 4.864v29.508c0 1.22-0.99 2.219-2.219 2.219h-2.398zM258.483 7.987c-117.649 0-213.367 95.71-213.367 213.367 0 117.649 95.718 213.367 213.367 213.367s213.367-95.718 213.367-213.367c0.001-117.665-95.718-213.367-213.367-213.367zM258.483 421.914c-110.592 0-200.567-89.975-200.567-200.567s89.975-200.567 200.567-200.567 200.567 89.975 200.567 200.567-89.975 200.567-200.567 200.567zM346.658 110.387c-35.61 0-64.29 27.878-65.289 63.471v99.755c0 8.277 6.733 15.010 15.010 15.010h2.398c2.586 0 5.009-0.657 7.134-1.801v9.378c0 8.277 6.733 15.010 15.010 15.010h2.398c2.586 0 5.009-0.657 7.134-1.809v7.893c0 8.277 6.733 15.010 15.002 15.010h2.406c8.286 0 15.019-6.733 15.019-15.010v-7.885c2.125 1.143 4.548 1.801 7.125 1.801h2.406c8.277 0 15.010-6.733 15.010-15.010v-41.967c2.125 1.143 4.548 1.801 7.134 1.801h2.398c8.277 0 15.010-6.724 15.010-15.002v-68.847c0-1.015-0.111-2.031-0.316-3.046-3.361-33.536-31.231-58.752-64.989-58.752zM296.371 275.823c-1.229 0-2.21-0.99-2.21-2.21v-99.584c0.802-28.433 23.859-50.85 52.489-50.85 27.247 0 49.724 20.446 52.275 47.548 0.026 0.299 0.085 0.597 0.154 0.896l0.077 2.398v67.004c0 1.212-0.99 2.202-2.21 2.202h-2.398c-1.22 0-2.21-0.99-2.21-2.202v-48.649c0-3.533-2.867-6.4-6.4-6.4l-4.925-0.001c-3.533 0-6.4 2.867-6.4 6.4v103.826c0 1.22-0.99 2.21-2.21 2.21h-2.406c-1.22 0-2.21-0.99-2.21-2.21v-75.255c0-3.533-2.867-6.4-6.4-6.4h-4.915c-3.533 0-6.4 2.859-6.4 6.4l-0.001 96.349c0 1.22-0.99 2.21-2.219 2.21h-2.398c-0.794 0-1.314-0.401-1.562-0.649-0.239-0.239-0.649-0.759-0.649-1.562v-96.35c0-3.533-2.867-6.4-6.4-6.4h-4.924c-3.533 0-6.4 2.859-6.4 6.4v75.255c0 1.22-0.99 2.21-2.21 2.21h-2.398c-1.22 0-2.21-0.99-2.21-2.21v-82.33c0-3.533-2.867-6.4-6.4-6.4h-4.915c-3.533 0-6.4 2.867-6.4 6.4v59.75c0 1.22-0.99 2.21-2.219 2.21l-2.396 0.002z" />
<glyph unicode="&#x3c;" d="M251.665 6.912c-117.495 0-213.086 95.59-213.086 213.086 0 117.495 95.59 213.086 213.086 213.086s213.086-95.599 213.086-213.095c0-117.487-95.59-213.077-213.086-213.077zM251.665 420.275c-110.43 0-200.286-89.847-200.286-200.286s89.856-200.277 200.286-200.277 200.286 89.839 200.286 200.277-89.848 200.286-200.286 200.286zM251.665 132.531c-95.445 0-172.45 82.287-173.21 83.123-2.27 2.458-2.261 6.255 0.026 8.695 3.157 3.396 78.413 83.098 173.184 83.098s170.027-79.701 173.184-83.098c2.295-2.449 2.295-6.263 0-8.713-3.157-3.403-78.413-83.105-173.184-83.105zM92.186 219.972c16.981-16.572 82.022-74.641 159.479-74.641 76.774 0 142.327 58.086 159.462 74.658-17.135 16.58-82.679 74.658-159.462 74.658-76.817 0-142.37-58.129-159.479-74.675zM251.665 133.632c-47.616 0-86.349 38.741-86.349 86.357 0 47.607 38.733 86.349 86.349 86.349s86.349-38.741 86.349-86.349c0-47.616-38.733-86.357-86.349-86.357zM251.665 293.538c-40.559 0-73.549-32.998-73.549-73.549 0-40.559 32.99-73.557 73.549-73.557s73.549 32.998 73.549 73.557c0 40.551-32.99 73.549-73.549 73.549zM251.665 158.234c-34.057 0-61.764 27.699-61.764 61.756 0 34.048 27.708 61.747 61.764 61.747 34.039 0 61.73-27.699 61.73-61.747 0.009-34.057-27.69-61.756-61.73-61.756zM251.665 268.937c-26.999 0-48.964-21.956-48.964-48.947s21.965-48.956 48.964-48.956c26.982 0 48.93 21.965 48.93 48.956 0.009 26.99-21.948 48.947-48.93 48.947z" />
<glyph unicode="&#x3d;" d="M255.676 6.374c-117.632 0-213.325 95.701-213.325 213.333s95.693 213.326 213.325 213.326c117.641 0 213.325-95.693 213.325-213.325s-95.685-213.334-213.325-213.334zM255.676 420.233c-110.575 0-200.525-89.958-200.525-200.525 0-110.575 89.95-200.533 200.525-200.533s200.525 89.958 200.525 200.533c0 110.566-89.95 200.525-200.525 200.525zM267.716 192.742c-1.621 0-3.26 0.623-4.506 1.877l-21.709 21.641c-1.203 1.203-1.877 2.833-1.877 4.531s0.674 3.328 1.877 4.531l88.047 87.868c2.483 2.483 6.537 2.492 9.045 0.009l21.726-21.683c1.203-1.203 1.869-2.825 1.869-4.531 0-1.69-0.666-3.319-1.877-4.523l-88.064-87.842c-1.245-1.255-2.892-1.878-4.531-1.878zM255.087 220.791l12.629-12.612 79.010 78.805-12.655 12.621-78.984-78.814zM366.131 290.842c-1.698 0-3.319 0.674-4.523 1.869l-21.769 21.717c-1.212 1.195-1.894 2.833-1.894 4.54 0 1.698 0.683 3.328 1.894 4.531l3.558 3.55c1.348 1.365 2.167 2.185 4.975 4.924 7.987 7.74 17.86 9.557 23.279 4.531 3.746-3.447 7.586-7.287 12.1-12.066 4.796-5.103 3.541-14.020-2.978-21.222-3.422-3.797-4.523-4.89-6.699-7.057l-3.388-3.405c-1.195-1.212-2.816-1.903-4.523-1.911l-0.032-0.001zM353.408 318.967l12.706-12.672c1.417 1.425 2.586 2.637 5.154 5.495 1.715 1.903 2.398 3.644 2.543 4.514-3.814 4.045-7.134 7.347-10.334 10.317-1.186-0.188-3.575-1.289-6.187-3.823-2.022-1.987-2.977-2.926-3.882-3.831zM212.762 159.565c-1.664 0-3.302 0.649-4.531 1.894-1.988 1.971-2.441 5.026-1.126 7.501l23.33 44.211c0.947 1.801 2.688 3.029 4.702 3.345 2.048 0.282 4.045-0.367 5.478-1.801l20.941-20.949c1.434-1.434 2.108-3.473 1.792-5.478-0.299-2.014-1.545-3.755-3.345-4.71l-44.262-23.262c-0.957-0.495-1.972-0.751-2.979-0.751zM237.696 199.518l-9.643-18.27 18.295 9.617-8.652 8.653zM315.435 99.959h-184.329c-3.533 0-6.4 2.867-6.4 6.4v184.32c0 3.533 2.867 6.4 6.4 6.4h150.682c3.533 0 6.4-2.867 6.4-6.4s-2.867-6.4-6.4-6.4h-144.282v-171.52h171.529v100.361c0 3.533 2.867 6.4 6.4 6.4s6.4-2.867 6.4-6.4v-106.761c0-3.532-2.868-6.4-6.4-6.4zM257.024 257.553h-99.072c-3.533 0-6.4 2.867-6.4 6.4s2.867 6.4 6.4 6.4h99.072c3.533 0 6.4-2.867 6.4-6.4s-2.867-6.4-6.4-6.4zM257.024 133.495h-99.072c-3.533 0-6.4 2.867-6.4 6.4s2.867 6.4 6.4 6.4h99.072c3.533 0 6.4-2.867 6.4-6.4s-2.867-6.4-6.4-6.4zM228.966 232.422h-71.014c-3.533 0-6.4 2.867-6.4 6.4s2.867 6.4 6.4 6.4h71.014c3.533 0 6.4-2.867 6.4-6.4s-2.867-6.4-6.4-6.4zM201.114 207.292h-43.17c-3.533 0-6.4 2.867-6.4 6.4s2.867 6.4 6.4 6.4h43.17c3.533 0 6.4-2.867 6.4-6.4s-2.868-6.4-6.4-6.4z" />
<glyph unicode="&#x3e;" d="M257.024 8.986c-117.376 0-212.864 95.488-212.864 212.873 0 117.376 95.488 212.864 212.864 212.864s212.864-95.488 212.864-212.864c0-117.385-95.488-212.873-212.864-212.873zM257.024 421.914c-110.319 0-200.064-89.745-200.064-200.064s89.754-200.073 200.064-200.073 200.064 89.754 200.064 200.081c0 110.311-89.745 200.056-200.064 200.056zM407.194 78.413h-70.989c-3.362 0-6.144 2.594-6.383 5.931l-4.608 64.102-18.014 15.275c-1.451 1.229-2.287 3.029-2.27 4.932s0.879 3.703 2.347 4.898l70.127 57.301-77.039 40.926c-1.698 0.905-2.901 2.517-3.277 4.403-0.375 1.877 0.111 3.831 1.331 5.316l16.555 20.147 6.315 27.494-54.093 32.606c-1.553 0.939-2.637 2.492-2.978 4.275-0.341 1.775 0.085 3.618 1.186 5.069l40.764 53.854c2.125 2.816 6.127 3.388 8.969 1.237 2.816-2.133 3.371-6.144 1.237-8.96l-36.463-48.188 51.968-31.326c2.364-1.425 3.55-4.215 2.935-6.912l-7.689-33.485c-0.222-0.964-0.666-1.869-1.297-2.628l-12.544-15.266 78.635-41.771c1.894-1.007 3.157-2.893 3.362-5.026 0.222-2.133-0.649-4.224-2.313-5.581l-71.637-58.53 14.199-12.032c1.314-1.109 2.125-2.705 2.253-4.429l4.378-60.834h65.033c3.533 0 6.4-2.867 6.4-6.4s-2.868-6.398-6.4-6.398zM222.455 117.632c-1.673 0-3.362 0.649-4.599 1.954-25.421 26.317-39.415 60.954-39.415 97.519s13.995 71.202 39.407 97.527c2.466 2.543 6.519 2.611 9.054 0.162 2.551-2.458 2.62-6.502 0.171-9.054-23.1-23.927-35.823-55.407-35.823-88.636 0-33.237 12.723-64.708 35.814-88.627 2.458-2.543 2.389-6.588-0.162-9.062-1.247-1.194-2.851-1.783-4.447-1.783zM176.273 86.767c-1.664 0-3.337 0.649-4.582 1.946-33.673 34.586-52.215 80.188-52.215 128.393 0 48.213 18.543 93.815 52.215 128.401 2.466 2.534 6.519 2.586 9.045 0.128 2.543-2.466 2.594-6.519 0.128-9.054-31.326-32.188-48.58-74.615-48.58-119.475 0-44.851 17.254-87.287 48.58-119.467 2.466-2.526 2.415-6.579-0.128-9.054-1.246-1.212-2.85-1.818-4.463-1.818zM259.473 155.699c-1.698 0-3.396 0.683-4.659 2.014-15.241 16.179-23.646 37.274-23.646 59.383 0 22.135 8.397 43.221 23.646 59.383 2.423 2.569 6.485 2.688 9.054 0.265 2.577-2.432 2.688-6.477 0.265-9.045-12.996-13.781-20.156-31.753-20.156-50.603 0-18.833 7.159-36.813 20.156-50.611 2.423-2.577 2.304-6.622-0.265-9.045-1.246-1.161-2.816-1.741-4.395-1.741z" />
<glyph unicode="&#x3f;" d="M252.595 12.279c-117.632 0-213.325 95.684-213.325 213.333 0 117.632 95.693 213.333 213.325 213.333 117.641 0 213.333-95.701 213.333-213.333 0.009-117.648-95.692-213.333-213.333-213.333zM252.595 426.146c-110.575 0-200.525-89.958-200.525-200.533s89.95-200.533 200.525-200.533c110.575 0 200.533 89.95 200.533 200.533 0.009 110.575-89.958 200.533-200.533 200.533zM187.085 106.846c-1.101 0-2.21 0.299-3.2 0.87-1.98 1.143-3.2 3.251-3.2 5.53v224.708c0 2.287 1.22 4.395 3.2 5.547 1.98 1.143 4.412 1.143 6.4 0l195.029-112.333c1.98-1.143 3.2-3.26 3.2-5.547s-1.22-4.403-3.2-5.547l-195.029-112.366c-0.999-0.555-2.099-0.862-3.2-0.862zM193.485 326.886v-202.555l175.821 101.291-175.821 101.264z" />
<glyph unicode="&#x40;" d="M252.86 8.764c-117.513 0-213.111 95.599-213.111 213.111 0 117.513 95.599 213.111 213.111 213.111s213.111-95.599 213.111-213.111c0-117.512-95.599-213.111-213.111-213.111zM252.86 422.187c-110.447 0-200.311-89.856-200.311-200.311 0-110.438 89.865-200.311 200.311-200.311s200.311 89.865 200.311 200.311c0 110.455-89.864 200.311-200.311 200.311zM251.588 66.082c-3.533 0-6.4 2.867-6.4 6.4v299.332c0 3.533 2.867 6.4 6.4 6.4s6.4-2.867 6.4-6.4v-299.332c0-3.533-2.867-6.4-6.4-6.4zM251.588 311.458c-0.734 0-1.476 0.128-2.202 0.384-2.517 0.93-4.198 3.328-4.198 6.016v35.413c0 2.236 1.161 4.301 3.063 5.461 1.911 1.169 4.284 1.254 6.263 0.222l9.6-4.941c2.133-1.101 3.473-3.294 3.473-5.692v-19.089c0-1.519-0.538-2.978-1.51-4.13l-9.6-11.375c-1.236-1.475-3.046-2.269-4.889-2.269zM263.97 66.082h-12.382c-3.533 0-6.4 2.867-6.4 6.4v133.137c0 1.903 0.836 3.686 2.287 4.907 1.451 1.212 3.362 1.707 5.239 1.391l12.382-2.219c3.038-0.538 5.265-3.2 5.265-6.289v-130.927c0.009-3.533-2.858-6.4-6.391-6.4zM251.221 70.537c0 0-4.617 5.248-10.206 7.117-12.194 4.079-10.155 3.499-14.37 4.787-4.181 1.28-6.528 5.137-6.528 5.137v9.805c0 0 23.578 14.123 28.467 15.061 4.924 0.93 17.519 0 17.519 0l32.546-12.151 5.018-3.26v-9.694c0 0-27.767-9.335-31.036-11.665s-7.817-5.137-7.817-5.137h-13.593zM264.815 64.137h-13.602c-1.835 0-3.584 0.802-4.804 2.185-0.973 1.084-4.25 4.198-7.424 5.265l-9.6 3.234c-1.963 0.666-2.338 0.802-4.608 1.485-6.34 1.963-9.762 7.33-10.129 7.945-0.606 1.007-0.93 2.15-0.93 3.328v9.805c0 2.244 1.178 4.326 3.115 5.495 9.165 5.495 25.327 14.848 30.549 15.846 1.877 0.35 4.471 0.538 7.927 0.538 5.419 0 11.255-0.444 11.255-0.444 0.606-0.043 1.203-0.171 1.766-0.384l32.546-12.143c0.444-0.171 0.853-0.367 1.246-0.614l5.026-3.268c1.818-1.178 2.918-3.209 2.918-5.376v-9.694c0-2.748-1.749-5.197-4.352-6.067-12.382-4.156-27.187-9.506-29.5-10.897-3.294-2.347-8.047-5.282-8.047-5.282-0.997-0.625-2.166-0.957-3.352-0.957zM253.875 76.937h9.105c1.545 0.973 3.985 2.534 5.922 3.934 3.072 2.21 17.604 7.381 28.356 11.051v1.63l-1.519 0.99-31.019 11.554c-1.732 0.119-5.692 0.35-9.421 0.35-3.558 0-5.052-0.213-5.53-0.316-2.483-0.623-13.414-6.605-23.262-12.399v-3.9c0.538-0.521 1.246-1.050 2.014-1.289 2.441-0.742 2.85-0.879 4.992-1.604l9.506-3.217c4.644-1.545 8.561-4.651 10.856-6.784zM266.513 67.268h-16.657c-1.161 0-2.304 0.316-3.294 0.905l-13.065 7.851c-13.85 3.183-15.172 4.659-16.427 7.151-0.435 0.862-0.666 1.826-0.691 2.799-0.35 0.879-1.143 2.458-1.758 3.533-0.546 0.956-0.836 2.057-0.836 3.166 0 3.533 2.867 7.006 6.4 7.006h83.405c2.27 0 4.369-1.203 5.513-3.149 1.161-1.954 1.195-4.386 0.077-6.357l-2.15-3.866c-0.666-1.195-1.698-2.15-2.953-2.705l-34.927-15.778c-0.819-0.377-1.715-0.556-2.637-0.556zM251.639 80.068h13.508l15.113 6.818h-39.987l11.366-6.818z" />
<glyph unicode="&#x41;" d="M254.319 8.201c-117.666 0-213.393 95.735-213.393 213.402 0 117.658 95.727 213.385 213.393 213.385s213.393-95.728 213.393-213.386c0-117.666-95.727-213.401-213.393-213.401zM254.319 422.187c-110.609 0-200.593-89.984-200.593-200.585 0-110.609 89.984-200.602 200.593-200.602s200.593 89.993 200.593 200.602c0 110.601-89.984 200.585-200.593 200.585zM449.169 145.783h-389.692c-3.533 0-6.4 2.867-6.4 6.4s2.867 6.4 6.4 6.4h389.692c3.533 0 6.4-2.867 6.4-6.4s-2.867-6.4-6.4-6.4zM416.247 91.068h-323.865c-3.533 0-6.4 2.867-6.4 6.4s2.867 6.4 6.4 6.4h323.866c3.533 0 6.4-2.867 6.4-6.4s-2.868-6.4-6.401-6.4zM368.256 148.685c-3.533 0-6.4 2.867-6.4 6.4v107.289c0 27.87-22.673 50.543-50.551 50.543h-113.989c-27.87 0-50.543-22.673-50.543-50.543v-107.29c0-3.533-2.867-6.4-6.4-6.4s-6.4 2.867-6.4 6.4v107.29c0 34.927 28.416 63.343 63.343 63.343h113.988c34.935 0 63.351-28.416 63.351-63.343v-107.29c0.001-3.532-2.866-6.399-6.399-6.399zM254.319 177.28c-33.041 0-59.921 26.871-59.921 59.913 0 33.050 26.88 59.938 59.921 59.938s59.913-26.889 59.913-59.938c-0.001-33.033-26.872-59.913-59.913-59.913zM254.319 284.339c-25.984 0-47.121-21.146-47.121-47.138 0-25.984 21.137-47.113 47.121-47.113s47.113 21.137 47.113 47.113c-0.001 25.993-21.129 47.138-47.113 47.138zM278.938 237.201c0-13.594-11.034-24.602-24.619-24.602-13.602 0-24.619 11.008-24.619 24.602 0 13.602 11.017 24.61 24.619 24.61 13.585 0 24.619-11.008 24.619-24.61zM254.319 206.199c-17.101 0-31.019 13.901-31.019 31.002s13.918 31.010 31.019 31.010 31.019-13.909 31.019-31.010c0-17.101-13.918-31.002-31.019-31.002zM254.319 255.411c-10.044 0-18.219-8.166-18.219-18.21 0-10.035 8.175-18.202 18.219-18.202s18.219 8.166 18.219 18.202c0 10.044-8.184 18.21-18.219 18.21z" />
<glyph unicode="&#x42;" d="M256.785 7.117c-117.504 0-213.103 95.599-213.103 213.12 0 117.513 95.599 213.111 213.103 213.111 117.513 0 213.111-95.599 213.111-213.111-0.008-117.521-95.598-213.12-213.111-213.12zM256.785 420.548c-110.438 0-200.303-89.856-200.303-200.311s89.856-200.32 200.303-200.32c110.447 0 200.311 89.865 200.311 200.32s-89.864 200.311-200.311 200.311zM269.201 98.782h-46.268c-2.731 0-5.171 1.749-6.059 4.335-0.060 0.171-5.811 16.649-17.476 23.791-10.957 6.699-69.555 29.15-91.204 37.239-2.5 0.93-4.156 3.319-4.156 5.982v40.474c0 2.398 1.348 4.599 3.482 5.692l104.619 53.47v151.184c0 3.533 2.867 6.4 6.4 6.4s6.4-2.867 6.4-6.4v-155.102c0-2.406-1.348-4.608-3.482-5.7l-104.619-53.47v-32.111c16.614-6.255 76.723-29.090 89.242-36.745 11.435-6.997 18.227-19.601 21.171-26.249h38.127c4.361 7.458 16.051 24.030 37.052 31.266 21.495 7.364 85.888 26.692 103.825 32.060v31.36l-139.93 55.859c-2.432 0.973-4.036 3.328-4.036 5.939l0.026 157.305c0 3.533 2.867 6.4 6.4 6.4s6.4-2.867 6.4-6.4l-0.034-152.951 139.938-55.868c2.432-0.964 4.028-3.328 4.028-5.939v-40.465c0-2.816-1.86-5.316-4.574-6.118-0.836-0.256-83.61-24.934-107.895-33.263-21.649-7.458-31.479-28.049-31.573-28.254-1.051-2.262-3.321-3.721-5.804-3.721zM268.689 186.94h-50.193c-3.533 0-6.4 2.867-6.4 6.4v222.873c0 3.533 2.867 6.4 6.4 6.4s6.4-2.867 6.4-6.4v-216.474h37.393v224.026c0 3.533 2.867 6.4 6.4 6.4s6.4-2.867 6.4-6.4v-230.426c0-3.532-2.867-6.399-6.4-6.399zM218.496 186.94h-75.87c-2.978 0-5.555 2.039-6.229 4.949-0.674 2.901 0.742 5.871 3.405 7.194l75.87 37.316c1.971 0.99 4.318 0.862 6.212-0.307 1.877-1.169 3.021-3.226 3.021-5.436v-37.316c-0.009-3.533-2.868-6.4-6.409-6.4zM170.138 199.74h41.958v20.634l-41.958-20.634zM378.598 186.94c-0.043 0-0.102 0-0.171 0h-109.739c-3.533 0-6.4 2.867-6.4 6.4l0.001 39.535c0 2.082 1.015 4.036 2.714 5.239 1.724 1.195 3.9 1.485 5.854 0.785l109.073-39.296c2.901-0.606 5.069-3.183 5.069-6.255-0.001-3.541-2.859-6.408-6.401-6.408zM275.089 199.74h66.697l-66.697 24.030v-24.030zM256.785 7.117c-117.504 0-213.103 95.599-213.103 213.12 0 117.513 95.599 213.111 213.103 213.111 117.513 0 213.111-95.599 213.111-213.111-0.008-117.521-95.598-213.12-213.111-213.12zM256.785 420.548c-110.438 0-200.303-89.856-200.303-200.311s89.856-200.32 200.303-200.32c110.447 0 200.311 89.865 200.311 200.32s-89.864 200.311-200.311 200.311z" />
<glyph unicode="&#x43;" d="M253.781 12.45c-117.129 0-212.42 95.283-212.42 212.403 0 117.129 95.292 212.412 212.42 212.412 117.12 0 212.403-95.283 212.403-212.412 0.001-117.12-95.283-212.403-212.403-212.403zM253.781 424.457c-110.063 0-199.611-89.541-199.611-199.604 0-110.054 89.549-199.603 199.62-199.603 110.046 0 199.603 89.54 199.603 199.603-0.008 110.063-89.557 199.604-199.612 199.604zM311.586 155.708c-4.301 0-7.799 3.499-7.799 7.782 0 4.318 3.499 7.799 7.799 7.799h17.954c0.435 0 0.853-0.051 1.263-0.119v10.701c-0.418-0.068-0.836-0.119-1.263-0.119h-17.954c-4.301 0-7.799 3.482-7.799 7.782s3.499 7.799 7.799 7.799h17.954c0.435 0 0.853-0.068 1.263-0.137v10.709c-0.418-0.085-0.836-0.128-1.263-0.128h-17.954c-4.301 0-7.799 3.49-7.799 7.765 0 4.326 3.499 7.799 7.799 7.799h17.954c0.435 0 0.853-0.068 1.263-0.119-0.017 8.38-0.401 21.521-14.413 21.521h-46.43c0 0 5.402 12.092 8.969 18.927 5.982 11.452 4.053 26.3 3.917 31.718-0.631 27.068-27.315 27.383-27.315 8.704 0-20.318 0.35-19.763-3.081-27.264-3.413-7.484-20.804-29.517-20.804-29.517s-10.146-9.037-21.598-13.065c-8.602-3.029-39.799-5.385-39.799-5.385v-82.662h52.651c0 0 7.219-13.781 17.135-13.781h66.884c10.564 0 16.418 12.851 16.418 12.851s2.85 4.318 5.035 10.419l-16.786 0.003zM306.901 126.046h-66.884c-10.052 0-17.34 8.695-20.736 13.781h-49.050c-3.533 0-6.4 2.867-6.4 6.4v82.662c0 3.354 2.586 6.135 5.914 6.383 11.742 0.887 32.478 3.029 38.161 5.035 8.96 3.157 17.212 9.89 19.072 11.477 6.579 8.371 17.417 22.895 19.627 27.733 2.543 5.538 2.543 5.538 2.517 19.473l-0.009 5.137c0 12.715 8.969 19.371 17.818 19.371 10.761 0 21.871-9.583 22.298-27.913l0.128-2.586c0.418-7.287 1.195-20.838-4.77-32.247-1.408-2.688-3.123-6.263-4.676-9.566h36.463c19.422 0 20.71-18.381 20.804-26.411 0.128-0.495 0.179-0.99 0.179-1.51 0-3.533-2.859-6.4-6.4-6.4-0.034-0.009-0.102-0.009-0.171 0-0.247 0-0.512 0.017-0.768 0.043l-18.449 0.077c-0.777 0-1.399-0.623-1.399-1.399 0-0.742 0.64-1.374 1.399-1.374h17.954c1.869 0.375 3.84-0.111 5.316-1.323 1.485-1.22 2.347-3.021 2.347-4.949v-10.709c0-1.877-0.828-3.661-2.253-4.864-1.425-1.22-3.328-1.758-5.154-1.451l-18.21 0.051c-0.759 0-1.399-0.64-1.399-1.399 0-0.768 0.623-1.382 1.399-1.382h17.954c1.835 0.299 3.874-0.213 5.291-1.434 1.425-1.22 2.372-2.987 2.372-4.847v-10.701c0-1.877-0.828-3.652-2.253-4.864-1.425-1.229-3.328-1.775-5.154-1.451l-18.21 0.026c-0.777 0-1.399-0.614-1.399-1.399 0-0.742 0.64-1.374 1.399-1.374h16.768c2.082 0 4.036-1.015 5.231-2.714s1.493-3.883 0.794-5.845c-2.048-5.726-4.642-10.069-5.461-11.383-1.358-2.791-8.705-16.154-22-16.154zM176.631 152.627h46.251c2.381 0 4.565-1.323 5.666-3.43 1.792-3.371 6.955-10.351 11.469-10.351h66.884c6.17 0 10.556 9.045 10.607 9.122 0.128 0.273 0.29 0.572 0.452 0.845 0.009 0.009 0.128 0.179 0.324 0.503h-6.699c-7.842 0-14.199 6.366-14.199 14.174 0 5.837 3.516 10.854 8.559 13.039-5.043 2.185-8.559 7.194-8.559 13.013 0 5.82 3.516 10.837 8.542 13.022-5.026 2.185-8.542 7.194-8.542 12.996 0 7.834 6.357 14.199 14.199 14.199h12.51c-0.828 7.202-3.285 8.602-7.706 8.602h-46.43c-2.167 0-4.19 1.101-5.367 2.918-1.186 1.818-1.365 4.105-0.478 6.093 0.222 0.503 5.513 12.356 9.131 19.285 4.326 8.286 3.686 19.541 3.345 25.591-0.077 1.178-0.128 2.193-0.154 3.012-0.23 10.138-4.958 15.428-9.498 15.428-3.14 0-5.018-2.449-5.018-6.571l0.009-5.111c0.026-15.471 0.026-16.742-3.678-24.823-3.627-7.962-19.763-28.501-21.589-30.814-0.23-0.29-0.495-0.563-0.768-0.819-0.461-0.401-11.238-9.916-23.731-14.319-6.997-2.475-25.702-4.378-35.524-5.239l0.001-70.365z" />
<glyph unicode="&#x44;" d="M254.259 11.913c-117.12 0-212.403 95.283-212.403 212.412 0 117.12 95.283 212.403 212.403 212.403 117.129 0 212.42-95.283 212.42-212.403-0.008-117.129-95.3-212.412-212.42-212.412zM254.259 423.927c-110.054 0-199.603-89.54-199.603-199.603s89.54-199.612 199.603-199.612 199.612 89.549 199.612 199.612c0 110.063-89.557 199.603-199.612 199.603zM196.454 293.47c4.301 0 7.799-3.499 7.799-7.782 0-4.318-3.499-7.799-7.799-7.799h-17.954c-0.435 0-0.853 0.051-1.263 0.119v-10.701c0.418 0.068 0.836 0.119 1.263 0.119h17.954c4.301 0 7.799-3.482 7.799-7.782s-3.499-7.799-7.799-7.799h-17.954c-0.435 0-0.853 0.068-1.263 0.137v-10.709c0.418 0.085 0.836 0.128 1.263 0.128h17.954c4.301 0 7.799-3.49 7.799-7.774 0-4.309-3.499-7.782-7.799-7.782h-17.954c-0.435 0-0.853 0.051-1.263 0.119 0.017-8.38 0.401-21.53 14.421-21.53h46.421c0 0-5.402-12.092-8.969-18.927-5.982-11.452-4.045-26.3-3.917-31.718 0.631-27.068 27.315-27.383 27.315-8.704 0 20.318-0.35 19.763 3.081 27.264 3.413 7.484 20.804 29.517 20.804 29.517s10.146 9.037 21.598 13.056c8.602 3.029 39.799 5.402 39.799 5.402v82.654h-52.642c0 0-7.228 13.781-17.143 13.781h-66.884c-10.564 0-16.418-12.851-16.418-12.851s-2.85-4.318-5.035-10.419l16.786-0.002zM241.109 125.687c-10.769 0-21.871 9.591-22.298 27.921l-0.128 2.586c-0.427 7.287-1.195 20.838 4.77 32.247 1.408 2.688 3.123 6.255 4.668 9.566h-36.462c-20.762 0-20.804 21.009-20.813 27.913 0 1.886 0.819 3.669 2.244 4.881 1.425 1.229 3.328 1.766 5.163 1.451l18.21-0.034c0.777 0 1.399 0.614 1.399 1.382 0 0.751-0.64 1.382-1.399 1.382h-17.954c-1.894-0.375-3.84 0.111-5.316 1.314-1.493 1.22-2.347 3.029-2.347 4.949v10.718c0 1.877 0.828 3.652 2.253 4.864 1.425 1.229 3.319 1.766 5.154 1.451l18.21-0.051c0.777 0 1.399 0.623 1.399 1.399 0 0.768-0.623 1.382-1.399 1.382h-17.954c-1.843-0.324-3.866 0.213-5.291 1.434s-2.372 2.978-2.372 4.847v10.701c0 1.877 0.828 3.652 2.253 4.864 1.425 1.229 3.319 1.766 5.154 1.451l18.21-0.034c0.777 0 1.399 0.623 1.399 1.399 0 0.751-0.64 1.382-1.399 1.382h-16.768c-2.082 0-4.036 1.015-5.231 2.714s-1.493 3.883-0.794 5.845c2.048 5.726 4.642 10.069 5.461 11.383 1.374 2.756 8.713 16.128 22.016 16.128h66.884c10.052 0 17.331-8.695 20.736-13.781h49.050c3.533 0 6.4-2.867 6.4-6.4v-82.654c0-3.354-2.577-6.127-5.914-6.383-11.733-0.887-32.478-3.046-38.161-5.052-8.9-3.132-17.203-9.882-19.081-11.477-6.579-8.363-17.408-22.886-19.618-27.725-2.543-5.53-2.543-5.53-2.517-19.473l0.009-5.137c-0.008-12.697-8.977-19.353-17.826-19.353zM183.953 219.418c0.828-7.211 3.285-8.61 7.706-8.61h46.43c2.167 0 4.19-1.101 5.367-2.918 1.186-1.809 1.357-4.105 0.478-6.093-0.222-0.503-5.513-12.356-9.131-19.285-4.326-8.286-3.686-19.541-3.345-25.591 0.077-1.178 0.128-2.193 0.154-3.012 0.23-10.138 4.958-15.437 9.498-15.437 3.14 0 5.018 2.458 5.018 6.579l-0.009 5.111c-0.026 15.471-0.026 16.742 3.678 24.823 3.627 7.953 19.763 28.501 21.589 30.814 0.23 0.29 0.495 0.563 0.768 0.819 0.461 0.401 11.238 9.916 23.731 14.319 6.997 2.466 25.711 4.378 35.524 5.248v70.357h-46.251c-2.381 0-4.565 1.323-5.666 3.43-1.792 3.371-6.955 10.351-11.469 10.351h-66.884c-6.17 0-10.556-9.045-10.615-9.122-0.119-0.273-0.282-0.58-0.452-0.845-0.009-0.009-0.119-0.179-0.316-0.503h6.699c7.834 0 14.199-6.366 14.199-14.182 0-5.828-3.524-10.846-8.559-13.030 5.035-2.185 8.559-7.185 8.559-13.013 0-5.82-3.516-10.837-8.542-13.013 5.026-2.193 8.542-7.202 8.542-13.013 0-7.817-6.366-14.182-14.199-14.182l-12.502-0.002z" />
<glyph unicode="&#x45;" d="M253.952 9.702c-116.13 0-209.562 90.974-212.719 207.113-1.545 56.841 19.14 110.882 58.24 152.175 39.108 41.284 91.947 64.879 148.796 66.423 118.758 3.302 215.398-88.934 218.598-207.027 1.553-56.849-19.132-110.891-58.231-152.183-39.117-41.293-91.947-64.887-148.796-66.423-1.963-0.052-3.942-0.078-5.888-0.078zM254.165 422.699c-1.843 0-3.695-0.026-5.547-0.077-53.436-1.459-103.1-23.629-139.853-62.438s-56.192-89.6-54.741-143.019c3.012-111.002 94.071-197.632 205.466-194.594 53.427 1.451 103.091 23.62 139.844 62.43s56.201 89.609 54.741 143.036c-2.96 109.158-90.768 194.662-199.91 194.662zM276.326 193.655c-3.422 0-6.272 2.722-6.391 6.195-0.119 3.533 2.654 6.485 6.187 6.605 79.94 2.705 120.064 18.611 120.064 26.752 0 9.207-50.167 27.127-142.131 27.127s-142.131-17.92-142.131-27.127c0-7.194 34.227-22.878 113.34-26.487l3.712-0.162c3.533-0.137 6.289-3.123 6.144-6.639-0.137-3.533-3.089-6.383-6.647-6.153l-3.84 0.179c-20.915 0.956-125.508 7.339-125.508 39.27 0 31.582 101.342 39.927 154.931 39.927s154.931-8.346 154.931-39.927c0-25.873-71.33-37.478-132.437-39.552-0.087-0.008-0.147-0.008-0.224-0.008zM254.054 172.049c-15.147 0-27.469 12.314-27.469 27.469s12.322 27.469 27.469 27.469 27.469-12.314 27.469-27.469-12.322-27.469-27.469-27.469zM254.054 214.187c-8.090 0-14.669-6.579-14.669-14.669s6.579-14.669 14.669-14.669c8.090 0 14.669 6.579 14.669 14.669 0 8.081-6.579 14.669-14.669 14.669z" />
<glyph unicode="&#x46;" d="M255.778 8.747c-117.683 0-213.427 95.753-213.427 213.436 0 117.675 95.744 213.419 213.427 213.419 117.692 0 213.419-95.744 213.419-213.419 0-117.684-95.727-213.436-213.419-213.436zM255.778 422.801c-110.626 0-200.627-90.001-200.627-200.619 0-110.635 90.001-200.636 200.627-200.636 110.618 0 200.619 90.001 200.619 200.636 0 110.618-89.993 200.619-200.619 200.619zM319.514 155.366h-128.64c-3.533 0-6.4 2.859-6.4 6.4v120.832c0 3.533 2.867 6.4 6.4 6.4h128.64c3.533 0 6.4-2.867 6.4-6.4v-120.832c0-3.541-2.868-6.4-6.4-6.4zM197.274 168.166h115.857v108.032h-115.857v-108.032zM349.235 127.454h-188.075c-3.533 0-6.4 2.867-6.4 6.4l0.001 176.648c0 3.533 2.867 6.4 6.4 6.4h188.075c3.533 0 6.4-2.867 6.4-6.4v-176.657c-0.001-3.532-2.868-6.391-6.401-6.391zM167.561 140.254h175.283v163.848h-175.283v-163.848zM185.6 304.102c-3.533 0-6.4 2.867-6.4 6.4v31.573c0 3.533 2.867 6.4 6.4 6.4s6.4-2.867 6.4-6.4v-31.573c0-3.532-2.867-6.4-6.4-6.4zM220.399 304.102c-3.533 0-6.4 2.867-6.4 6.4v31.573c0 3.533 2.867 6.4 6.4 6.4s6.4-2.867 6.4-6.4v-31.573c0-3.532-2.867-6.4-6.4-6.4zM255.198 304.102c-3.533 0-6.4 2.867-6.4 6.4v31.573c0 3.533 2.867 6.4 6.4 6.4s6.4-2.867 6.4-6.4v-31.573c0-3.532-2.867-6.4-6.4-6.4zM289.988 304.102c-3.533 0-6.4 2.867-6.4 6.4v31.573c0 3.533 2.867 6.4 6.4 6.4s6.4-2.867 6.4-6.4v-31.573c0-3.532-2.867-6.4-6.4-6.4zM324.796 304.102c-3.533 0-6.4 2.867-6.4 6.4v31.573c0 3.533 2.867 6.4 6.4 6.4s6.4-2.867 6.4-6.4v-31.573c0-3.532-2.867-6.4-6.4-6.4zM185.6 95.881c-3.533 0-6.4 2.867-6.4 6.4v31.565c0 3.533 2.867 6.4 6.4 6.4s6.4-2.867 6.4-6.4v-31.565c0-3.533-2.867-6.4-6.4-6.4zM220.399 95.881c-3.533 0-6.4 2.867-6.4 6.4v31.565c0 3.533 2.867 6.4 6.4 6.4s6.4-2.867 6.4-6.4v-31.565c0-3.533-2.867-6.4-6.4-6.4zM255.198 95.881c-3.533 0-6.4 2.867-6.4 6.4v31.565c0 3.533 2.867 6.4 6.4 6.4s6.4-2.867 6.4-6.4v-31.565c0-3.533-2.867-6.4-6.4-6.4zM289.988 95.881c-3.533 0-6.4 2.867-6.4 6.4v31.565c0 3.533 2.867 6.4 6.4 6.4s6.4-2.867 6.4-6.4v-31.565c0-3.533-2.867-6.4-6.4-6.4zM324.796 95.881c-3.533 0-6.4 2.867-6.4 6.4v31.565c0 3.533 2.867 6.4 6.4 6.4s6.4-2.867 6.4-6.4v-31.565c0-3.533-2.867-6.4-6.4-6.4zM161.161 146.185h-31.565c-3.533 0-6.4 2.867-6.4 6.4s2.867 6.4 6.4 6.4h31.565c3.533 0 6.4-2.867 6.4-6.4s-2.868-6.4-6.4-6.4zM161.161 180.983h-31.565c-3.533 0-6.4 2.867-6.4 6.4s2.867 6.4 6.4 6.4h31.565c3.533 0 6.4-2.867 6.4-6.4s-2.868-6.4-6.4-6.4zM161.161 215.782h-31.565c-3.533 0-6.4 2.867-6.4 6.4s2.867 6.4 6.4 6.4h31.565c3.533 0 6.4-2.867 6.4-6.4s-2.868-6.4-6.4-6.4zM161.161 250.581h-31.565c-3.533 0-6.4 2.867-6.4 6.4s2.867 6.4 6.4 6.4h31.565c3.533 0 6.4-2.867 6.4-6.4s-2.868-6.4-6.4-6.4zM161.161 285.372h-31.565c-3.533 0-6.4 2.867-6.4 6.4s2.867 6.4 6.4 6.4h31.565c3.533 0 6.4-2.867 6.4-6.4s-2.868-6.4-6.4-6.4zM381.961 146.167h-31.565c-3.533 0-6.4 2.867-6.4 6.4s2.867 6.4 6.4 6.4h31.565c3.533 0 6.4-2.867 6.4-6.4s-2.868-6.4-6.4-6.4zM381.961 180.983h-31.565c-3.533 0-6.4 2.867-6.4 6.4s2.867 6.4 6.4 6.4h31.565c3.533 0 6.4-2.867 6.4-6.4s-2.868-6.4-6.4-6.4zM381.961 215.782h-31.565c-3.533 0-6.4 2.867-6.4 6.4s2.867 6.4 6.4 6.4h31.565c3.533 0 6.4-2.867 6.4-6.4s-2.868-6.4-6.4-6.4zM381.961 250.573h-31.565c-3.533 0-6.4 2.867-6.4 6.4s2.867 6.4 6.4 6.4h31.565c3.533 0 6.4-2.867 6.4-6.4s-2.868-6.4-6.4-6.4zM381.961 285.372h-31.565c-3.533 0-6.4 2.867-6.4 6.4s2.867 6.4 6.4 6.4h31.565c3.533 0 6.4-2.867 6.4-6.4s-2.868-6.4-6.4-6.4z" />
<glyph unicode="&#x47;" d="M253.44 7.629c-117.137 0-212.429 95.292-212.429 212.429s95.292 212.428 212.429 212.428 212.437-95.292 212.437-212.429-95.3-212.428-212.437-212.428zM253.44 419.686c-110.071 0-199.629-89.549-199.629-199.629 0-110.071 89.557-199.629 199.629-199.629 110.080 0 199.637 89.557 199.637 199.629s-89.557 199.629-199.637 199.629zM371.831 268.757h-213.102c-3.533 0-6.4 2.867-6.4 6.4s2.867 6.4 6.4 6.4h213.111c3.533 0 6.4-2.867 6.4-6.4s-2.876-6.4-6.409-6.4zM371.831 268.757c-1.638 0-3.285 0.623-4.531 1.877l-48.102 48.094c-2.5 2.5-2.5 6.554 0 9.054s6.554 2.5 9.054 0l48.102-48.102c2.5-2.5 2.5-6.545 0-9.045-1.254-1.255-2.884-1.878-4.523-1.878zM323.721 220.638c-1.63 0-3.277 0.623-4.514 1.877-2.5 2.5-2.5 6.545 0 9.045l48.102 48.119c2.5 2.5 6.554 2.5 9.054 0s2.5-6.554 0-9.054l-48.111-48.111c-1.255-1.253-2.893-1.876-4.531-1.876zM348.134 158.575h-213.094c-3.533 0-6.4 2.867-6.4 6.4s2.867 6.4 6.4 6.4h213.094c3.533 0 6.4-2.867 6.4-6.4s-2.867-6.4-6.4-6.4zM183.151 110.473c-1.638 0-3.277 0.623-4.523 1.877l-48.111 48.102c-2.5 2.5-2.5 6.554 0 9.054s6.554 2.5 9.054 0l48.102-48.102c2.5-2.5 2.5-6.554 0-9.054-1.245-1.246-2.884-1.877-4.522-1.877zM135.049 158.575c-1.638 0-3.277 0.623-4.523 1.877-2.5 2.5-2.5 6.554 0 9.054l48.102 48.102c2.5 2.5 6.554 2.5 9.054 0s2.5-6.554 0-9.054l-48.111-48.102c-1.254-1.254-2.884-1.877-4.522-1.877z" />
<glyph unicode="&#x48;" d="M319.659 163.098c-14.421 0-28.228-3.934-40.277-11.179l-28.041 28.032c12.015 22.861 12.015 50.398-0.009 73.233l31.693 31.701c11.153-5.905 23.654-9.054 36.625-9.054h0.009c20.966 0 40.678 8.149 55.509 22.997 30.575 30.566 30.575 80.35-0.009 110.976-14.822 14.822-34.526 22.972-55.501 22.972s-40.678-8.149-55.492-22.972c-24.892-24.892-29.542-62.473-13.952-92.109l-31.684-31.684c-11.153 5.888-23.637 9.037-36.608 9.037-20.983 0-40.695-8.166-55.484-22.98-30.618-30.592-30.635-80.384-0.026-111.019 14.814-14.814 34.526-22.989 55.509-22.989 12.971 0 25.472 3.157 36.617 9.071l29.85-29.858c-13.227-28.979-8.030-64.35 15.761-88.175 14.831-14.797 34.534-22.98 55.501-22.98 20.975 0 40.687 8.183 55.518 22.997 30.566 30.592 30.566 80.375-0.009 110.976-14.822 14.849-34.525 23.007-55.5 23.007zM320.23 394.624c21.717 0 39.339-17.604 39.339-39.347 0-21.734-17.621-39.364-39.339-39.364-21.751 0-39.364 17.63-39.364 39.364 0 21.743 17.621 39.347 39.364 39.347zM182.025 176.649c-21.751 0-39.373 17.63-39.373 39.364 0 21.726 17.621 39.347 39.373 39.347 21.726 0 39.347-17.621 39.347-39.347s-17.622-39.364-39.347-39.364zM320.23 45.491c-21.751 0-39.364 17.613-39.364 39.356 0 21.734 17.613 39.364 39.364 39.364 21.717 0 39.339-17.63 39.339-39.364 0.009-21.734-17.621-39.356-39.339-39.356z" />
<glyph unicode="&#x49;" d="M397.687 397.773c-38.579 17.254-76.331 15.881-110.916-9.856-12.066-9.011-21.999-20.855-33.135-31.957-11.136 11.136-21.060 22.997-33.101 32.009-34.509 25.805-72.269 27.247-110.882 10.035-45.124-20.113-71.945-63.087-69.239-109.628 1.468-25.054 10.675-47.241 25.148-67.541 20.719-29.082 44.501-55.526 69.146-81.237 18.364-19.123 36.975-38.067 55.936-56.644 20.352-19.883 62.652-59.324 62.652-59.324s42.359 39.339 62.78 59.221c19.004 18.517 37.666 37.436 56.047 56.559 24.704 25.651 48.538 52.062 69.316 81.092 14.498 20.292 23.748 42.47 25.25 67.499 2.781 46.557-23.92 89.573-69.002 109.772z" />
<glyph unicode="&#x4a;" d="M255.983 8.593c-2.193 0-4.224 1.152-5.359 3.021l-72.491 118.647c-53.436 28.766-86.554 84.070-86.554 144.734 0 90.65 73.754 164.42 164.403 164.42 90.667 0 164.42-73.771 164.42-164.42 0-60.698-33.135-115.985-86.579-144.751l-72.481-118.639c-1.135-1.86-3.166-3.012-5.359-3.012zM255.991 435.14c-88.303 0-160.137-71.842-160.137-160.154 0-58.957 32.307-112.973 84.301-140.979l1.015-0.546 73.088-119.637c0.734-1.22 2.697-1.212 3.43-0.009l73.079 119.629 1.015 0.546c52.028 27.998 84.343 82.014 84.343 140.988 0.020 88.32-71.822 160.162-160.134 160.162zM143.829 275.874c0 0 0 0 0 0 0-61.951 50.221-112.171 112.171-112.171s112.171 50.221 112.171 112.171c0 0 0 0 0 0s0 0 0 0c0 61.95-50.221 112.171-112.171 112.171s-112.171-50.221-112.171-112.171c0 0 0 0 0 0zM255.983 8.593c-2.193 0-4.224 1.152-5.359 3.021l-72.491 118.647c-53.436 28.766-86.554 84.070-86.554 144.734 0 90.65 73.754 164.42 164.403 164.42 90.667 0 164.42-73.771 164.42-164.42 0-60.698-33.135-115.985-86.579-144.751l-72.481-118.639c-1.135-1.86-3.166-3.012-5.359-3.012zM255.991 426.837c-83.721 0-151.825-68.122-151.825-151.842 0-56.567 31.172-108.066 81.357-134.417 1.007-0.529 1.852-1.314 2.441-2.304l68.019-111.334 68.011 111.317c0.589 0.981 1.434 1.766 2.441 2.304 50.21 26.334 81.399 77.841 81.399 134.434 0 83.712-68.105 151.842-151.843 151.842zM152.252 317.978l61.85 61.85c-28.075-11.384-50.467-33.776-61.85-61.85zM256.179 388.062c-2.773 0-5.513-0.213-8.243-0.418l-103.501-103.509c-0.196-2.739-0.418-5.47-0.418-8.252 0-5.154 0.469-10.189 1.143-15.155l126.199 126.199c-4.982 0.657-10.026 1.135-15.18 1.135zM292.42 381.961l-142.319-142.319c1.997-5.845 4.378-11.511 7.27-16.87l151.91 151.919c-5.366 2.892-11.024 5.273-16.861 7.27zM324.966 364.356l-157.269-157.269c3.516-4.506 7.347-8.73 11.486-12.646l158.43 158.43c-3.917 4.138-8.141 7.97-12.647 11.485zM349.252 338.483l-155.69-155.699c4.89-3.294 10.112-6.118 15.505-8.619l148.804 148.804c-2.5 5.402-5.325 10.625-8.619 15.514zM364.698 303.778l-136.431-136.448c6.724-1.724 13.687-2.833 20.838-3.285l118.878 118.878c-0.444 7.159-1.553 14.122-3.285 20.855zM366.37 255.292l-89.617-89.634c14.532 2.697 28.066 8.192 40.047 15.923l33.647 33.647c7.731 11.989 13.218 25.514 15.923 40.064z" />
<glyph unicode="&#x4b;" d="M480 352c17.673 0 32 14.327 32 32v64h-64v32h-416c-17.6 0-32-14.399-32-32v-448c0-17.6 14.398-32 32-32h416v128h32c17.673 0 32 14.327 32 32v64h-64v32h32c17.673 0 32 14.327 32 32v64h-64v32h32zM288 351.835c35.255 0 63.835-28.58 63.835-63.835s-28.58-63.835-63.835-63.835c-35.255 0-63.835 28.58-63.835 63.835s28.58 63.835 63.835 63.835zM128 0h-32v448h32v-448zM384 96h-192v32c0 35.347 28.654 64 64 64v0h64c35.348 0 64-28.653 64-64v-32z" />
<glyph unicode="&#x4c;" d="M96 480v-512l320 255.632-320 256.368z" />
<glyph unicode="&#x4d;" d="M512 384h-512l255.632-320 256.368 320z" />
<glyph unicode="&#x4e;" d="M148.392 219.948c0-131.281 106.428-237.709 237.709-237.709s237.709 106.428 237.709 237.709c0 131.281-106.428 237.709-237.709 237.709s-237.709-106.43-237.709-237.709zM533.941 169.388h-295.674l147.834 158.163 147.84-158.163z" horiz-adv-x="791" />
<glyph unicode="&#x4f;" d="M480.145 278.246l-166.613 6.486-57.925 156.347-57.642-156.45-166.605-6.767 130.978-103.168-45.039-160.537 138.599 92.689 138.769-92.45-45.329 160.452z" />
<glyph unicode="&#x50;" d="M238.705 202.24h208.988l-277.422 277.422c-2.284 2.284-5.038 3.42-8.264 3.42h-143.053c-6.666 0-12.319-2.427-16.968-7.26-4.659-4.854-6.984-10.598-6.984-17.244v-142.499c0-3.42 0.952-6.083 2.847-7.977l240.855-241.336 0.001 135.474zM84.767 392.735c-2.274-2.284-4.875-4.045-7.834-5.274-2.939-1.239-5.98-1.853-9.124-1.853-3.123 0-6.164 0.573-9.124 1.71-2.938 1.147-5.632 2.949-8.12 5.417-2.458 2.468-4.26 5.171-5.396 8.12s-1.721 5.99-1.721 9.124c0 3.144 0.625 6.175 1.864 9.124 1.219 2.939 2.98 5.55 5.253 7.833 4.936 4.741 10.701 7.127 17.244 7.127 6.564 0 12.216-2.376 16.957-7.127 4.762-4.751 7.137-10.404 7.137-16.957 0.011-6.554-2.375-12.309-7.136-17.244zM10.67 9.124c0-3.604 1.137-6.554 3.41-8.827 2.284-2.284 5.038-3.42 8.284-3.42h73.523l-85.217 235.684v-223.437zM144.906-11.96v-0.584c2.662-4.936 6.564-7.404 11.684-7.404 1.341 0 2.765 0.184 4.28 0.563l71.823 29.645-222.013 259.072 134.226-281.292zM234.568-27.494v230.4h281.395v-230.4h-281.395zM247.173-14.592h256.205v204.595h-256.205v-204.595zM311.368 158.065c7.004 0 13.005-2.499 18.002-7.496s7.496-10.998 7.496-18.002-2.499-13.097-7.496-18.299c-4.997-4.997-10.998-7.496-18.002-7.496s-13.046 2.55-18.145 7.649-7.649 11.151-7.649 18.145 2.499 13.005 7.496 18.002c5.201 4.988 11.304 7.497 18.298 7.497zM285.573 10.906l70.349 70.349 44.851-44.851 44.851 89.702 31.949-63.898v-51.302h-192z" />
<glyph unicode="&#x51;" d="M132.215 185.182h235.648v77.628h-235.648v-77.628zM412.885 248.124h-10.47v11.085c0 19.055-15.497 34.56-34.56 34.56h-235.64c-19.055 0-34.56-15.505-34.56-34.56v-70.4c0-19.055 15.505-34.569 34.56-34.569h235.648c19.055 0 34.56 15.505 34.56 34.569v11.068h10.47c5.18 0 9.395 4.215 9.395 9.404v29.474c-0.016 5.162-4.223 9.369-9.403 9.369zM389.615 188.8c0-11.998-9.762-21.769-21.76-21.769h-235.64c-11.998 0-21.76 9.771-21.76 21.769v70.4c0 11.998 9.762 21.76 21.76 21.76h235.648c11.998 0 21.76-9.762 21.76-21.76v-70.4z" />
<glyph unicode="&#x52;" d="M132.215 185.182h127.753v77.628h-127.753v-77.628zM412.885 248.124h-10.47v11.085c0 19.055-15.497 34.56-34.56 34.56h-235.64c-19.055 0-34.56-15.505-34.56-34.56v-70.4c0-19.055 15.505-34.569 34.56-34.569h235.648c19.055 0 34.56 15.505 34.56 34.569v11.068h10.47c5.18 0 9.395 4.215 9.395 9.404v29.474c-0.016 5.162-4.223 9.369-9.403 9.369zM389.615 188.8c0-11.998-9.762-21.769-21.76-21.769h-235.64c-11.998 0-21.76 9.771-21.76 21.769v70.4c0 11.998 9.762 21.76 21.76 21.76h235.648c11.998 0 21.76-9.762 21.76-21.76v-70.4z" />
<glyph unicode="&#x53;" d="M132.215 185.182h185.396v77.628h-185.396v-77.628zM412.885 248.124h-10.47v11.085c0 19.055-15.497 34.56-34.56 34.56h-235.64c-19.055 0-34.56-15.505-34.56-34.56v-70.4c0-19.055 15.505-34.569 34.56-34.569h235.648c19.055 0 34.56 15.505 34.56 34.569v11.068h10.47c5.18 0 9.395 4.215 9.395 9.404v29.474c-0.016 5.162-4.223 9.369-9.403 9.369zM389.615 188.8c0-11.998-9.762-21.769-21.76-21.769h-235.64c-11.998 0-21.76 9.771-21.76 21.769v70.4c0 11.998 9.762 21.76 21.76 21.76h235.648c11.998 0 21.76-9.762 21.76-21.76v-70.4z" />
<glyph unicode="&#x54;" d="M435.958 44.657c-49.183-49.9-108.38-74.854-177.592-74.854-69.233 0-128.236 24.955-176.998 74.854-48.783 49.879-73.165 109.773-73.165 179.63 0 69.847 24.371 129.72 73.165 179.63 48.762 49.899 107.765 74.854 176.997 74.854 69.212 0 128.42-24.965 177.592-74.844 49.142-49.91 73.738-109.783 73.738-179.63 0.001-69.868-24.595-129.761-73.737-179.64zM425.339 393.748c-46.019 47.094-101.704 70.656-166.973 70.656-65.3 0-120.955-23.562-166.973-70.656-46.019-47.114-69.028-103.588-69.028-169.452 0-65.874 23.009-122.153 69.028-168.858s101.663-70.052 166.973-70.052c65.28 0 120.955 23.347 166.973 70.052 46.019 46.725 69.018 103.004 69.018 168.858-0.001 65.865-23 122.338-69.018 169.452zM256 377.6c-62.218 0-112.64-50.422-112.64-112.64 0-41.277 37.765-85.023 51.517-123.443 20.511-57.293 18.248-91.597 61.123-91.597 43.52 0 40.602 34.14 61.123 91.361 13.793 38.503 51.517 82.719 51.517 123.679 0 62.218-50.442 112.64-112.64 112.64zM282.542 99.318l-50.77-6.339c-1.812 5.243-3.748 11.377-6.124 19.384-0.031 0.102-0.072 0.215-0.092 0.317l63.365 7.916c-0.901-3.021-1.864-6.195-2.703-9.042-1.341-4.597-2.539-8.591-3.676-12.236zM222.577 122.542c-1.864 6.164-3.963 12.657-6.298 19.538h79.524c-1.26-3.676-2.519-7.363-3.604-10.844l-69.622-8.694zM256 70.4c-10.383 0-15.145 1.198-20.449 12.8l43.397 5.437c-6.288-16.937-10.865-18.237-22.948-18.237zM303.841 162.56h-95.57c-5.1 11.059-11.223 22.118-17.275 32.942-13.352 23.91-27.156 48.64-27.156 69.458 0 50.821 41.339 92.16 92.16 92.16s92.16-41.339 92.16-92.16c0-20.664-13.824-45.517-27.197-69.581-5.981-10.783-12.063-21.821-17.122-32.819zM256 326.4c2.816 0 5.12-2.294 5.12-5.12s-2.304-5.12-5.12-5.12c-28.232 0-51.2-22.968-51.2-51.2 0-2.816-2.304-5.12-5.12-5.12s-5.12 2.304-5.12 5.12c0 33.884 27.556 61.44 61.44 61.44z" />
<glyph unicode="&#x55;" d="M256.009 393.199c-93.312 0-169.216-75.904-169.216-169.199 0-93.303 75.904-169.199 169.216-169.199 93.295 0 169.19 75.904 169.19 169.199s-75.896 169.199-169.19 169.199zM165.41 105.626h-11.332c-21.342 18.406-37.683 42.428-46.66 69.794h57.993l-0.001-69.794zM165.41 188.22h-61.517c-2.705 11.52-4.292 23.458-4.292 35.78 0 11.691 1.391 23.049 3.84 34.014h61.978v-69.794zM165.41 270.814h-58.641c8.653 27.511 24.806 51.652 45.926 70.306h12.706l0.001-70.306zM249.6 67.925c-25.916 1.058-50.202 8.371-71.39 20.591v4.309h71.39v-24.9zM249.6 105.626h-71.39v69.794h71.39v-69.794zM249.6 188.211h-71.39v69.803h71.39v-69.803zM249.6 270.814h-71.39v70.306h71.39v-70.306zM249.6 353.92h-71.39v5.564c21.188 12.22 45.474 19.533 71.39 20.591v-26.155zM346.103 341.12h13.201c21.129-18.654 37.274-42.795 45.926-70.306h-59.127v70.306zM333.303 88.209c-21.077-12.041-45.193-19.243-70.903-20.284v24.9h70.903v-4.616zM333.303 105.626h-70.895v69.794h70.895v-69.794zM333.303 188.22h-70.895v69.803h70.895v-69.803zM333.303 270.814h-70.895v70.306h70.895v-70.306zM333.303 353.92h-70.903v26.155c25.711-1.050 49.826-8.243 70.903-20.284v-5.871zM357.922 105.626h-11.827v69.794h58.479c-8.977-27.367-25.31-51.388-46.652-69.794zM346.103 188.22v69.794h62.464c2.441-10.965 3.831-22.323 3.831-34.014 0-12.322-1.587-24.269-4.292-35.78h-62.003z" />
<glyph unicode="&#x56;" d="M256.009 393.199c-93.303 0-169.207-75.904-169.207-169.199 0-93.303 75.904-169.199 169.207-169.199 93.295 0 169.19 75.904 169.19 169.199s-75.896 169.199-169.19 169.199zM317.585 367.727c36.301-15.616 65.493-44.621 81.459-80.734h-81.459v80.734zM192.034 81.434c-34.253 15.428-61.901 42.812-77.756 76.834h77.756v-76.834zM192.034 171.068h-83.021c-5.982 16.555-9.421 34.33-9.421 52.932 0 17.57 3.046 34.415 8.414 50.193h84.019l0.001-103.125zM192.034 286.993h-79.078c15.616 35.311 43.895 63.727 79.078 79.582v-79.582zM304.785 75.494c-15.369-5.060-31.735-7.893-48.777-7.893-17.946 0-35.115 3.183-51.174 8.772v81.894h99.951v-82.773zM304.785 171.068h-99.951v103.125h99.951v-103.125zM304.785 286.993h-99.951v84.634c16.060 5.581 33.237 8.772 51.174 8.772 17.041 0 33.408-2.833 48.777-7.893v-85.513zM317.585 80.273v77.995h80.137c-16.222-34.825-44.775-62.78-80.137-77.995zM317.585 171.068v103.125h86.4c5.376-15.778 8.414-32.623 8.414-50.193 0-18.603-3.43-36.378-9.421-52.932h-85.393z" />
<glyph unicode="&#x57;" d="M340.497 40.619c10.385 8.115 17.246 20.19 17.246 37.299v297.864c0 16.068-5.316 26.692-13.406 33.749-15.71 13.687-41.89 13.867-60.305 13.867-0.23 0-0.469 0-0.7 0-16.964 0-22.716 0.017-22.75 0.017l-31.906-0.017c-27.844 0-74.436 0-74.436-47.625v-297.865c0-37.7 33.186-51.132 64.239-51.132h75.034c16.955 0.010 34.517 4.055 46.984 13.843zM168.073 375.782c0 28.416 21.299 33.801 60.612 33.801l31.898 0.009c0 0 5.751-0.009 22.758-0.009 39.296 0 60.604-5.385 60.604-33.801v-297.865c0-33.664-35.26-37.299-50.415-37.299h-75.034c-15.155 0-50.415 3.635-50.415 37.299v297.865z" />
<glyph unicode="&#x58;" d="M435.958 44.657c-49.183-49.9-108.38-74.865-177.592-74.865-69.233 0-128.236 24.965-176.998 74.865-48.783 49.879-73.165 109.773-73.165 179.63 0 69.847 24.371 129.72 73.165 179.63 48.763 49.9 107.766 74.854 176.998 74.854 69.212 0 128.42-24.965 177.592-74.844 49.142-49.91 73.738-109.783 73.738-179.63 0-69.868-24.596-129.761-73.738-179.64zM425.339 393.748c-46.019 47.094-101.704 70.656-166.973 70.656-65.3 0-120.955-23.562-166.973-70.656-46.019-47.114-69.028-103.588-69.028-169.452 0-65.874 23.009-122.153 69.028-168.858s101.663-70.052 166.973-70.052c65.28 0 120.955 23.347 166.973 70.052 46.019 46.725 69.018 103.004 69.018 168.858-0.001 65.865-23 122.338-69.018 169.452zM370.749 314.061l-40.448 40.448c-8.796 8.796-26.204 16.005-38.656 16.005h-135.895c-12.452 0-22.641-10.189-22.641-22.651v-244.582c0-12.462 10.189-22.651 22.641-22.651h208.353c12.462 0 22.641 10.189 22.641 22.651v172.124c0 12.462-7.199 29.86-16.005 38.656h0.010zM357.939 301.251c0.891-0.881 1.772-1.966 2.621-3.205h-46.264v46.274c1.219-0.85 2.314-1.741 3.205-2.621l40.438-40.448zM368.65 103.291c0-2.447-2.068-4.526-4.526-4.526h-208.363c-2.458 0-4.526 2.079-4.526 4.526v244.582c0 2.458 2.079 4.526 4.526 4.526h135.885c1.362 0 2.898-0.184 4.526-0.481v-71.987h71.987c0.297-1.628 0.481-3.175 0.481-4.526l0.010-172.114zM343.491 223.037l-47.483-38.513 20.869-62.044-53.996 38.502-53.996-38.502 20.859 62.044-47.493 38.513h60.324l20.306 59.167 20.101-59.167h60.509z" />
<glyph unicode="&#x59;" d="M363.17-8.533h-214.34c-3.533 0-6.4 2.867-6.4 6.4v367.675c0 3.533 2.867 6.4 6.4 6.4h214.332c3.533 0 6.4-2.867 6.4-6.4v-367.675c0.008-3.533-2.859-6.4-6.392-6.4zM155.23 4.267h201.532v354.875h-201.532v-354.875z" />
<glyph unicode="&#x5a;" d="M256 443.733c-121.165 0-219.733-98.568-219.733-219.733 0-121.156 98.569-219.734 219.734-219.734 121.156 0 219.734 98.577 219.734 219.734-0.001 121.165-98.578 219.733-219.735 219.733zM256 17.066c-114.108 0-206.933 92.835-206.933 206.934 0 114.108 92.825 206.933 206.933 206.933 114.099 0 206.933-92.826 206.933-206.933 0.001-114.099-92.834-206.934-206.933-206.934zM239.079 262.724h-61.952c-3.533 0-6.4-2.867-6.4-6.4v-107.827c0-3.524 2.867-6.4 6.4-6.4h61.952c3.533 0 6.4 2.876 6.4 6.4v107.827c0 3.533-2.868 6.4-6.4 6.4zM232.679 154.897h-49.152v95.027h49.152v-95.027zM376.61 337.775h-20.907v22.827c0 3.533-2.867 6.4-6.4 6.4h-199.662c-3.533 0-6.4-2.867-6.4-6.4v-244.062c0-3.533 2.867-6.4 6.4-6.4h20.915v-22.827c0-3.533 2.867-6.4 6.4-6.4h199.646c3.533 0 6.4 2.867 6.4 6.4v244.062c0.008 3.533-2.859 6.4-6.392 6.4zM156.041 354.202h186.855v-231.262l-186.855-0.001v231.263zM370.21 93.713h-186.854v16.427h165.948c3.533 0 6.4 2.867 6.4 6.4v208.435h14.498l0.008-231.262zM321.963 337.775h-145.007c-3.533 0-6.4-2.867-6.4-6.4v-49.596c0-3.533 2.867-6.4 6.4-6.4h145.007c3.533 0 6.4 2.867 6.4 6.4v49.596c0 3.533-2.85 6.4-6.4 6.4zM315.563 288.179h-132.207v36.796h132.207v-36.796zM321.963 262.724h-58.889c-3.533 0-6.4-2.867-6.4-6.4s2.867-6.4 6.4-6.4h58.889c3.533 0 6.4 2.867 6.4 6.4s-2.85 6.4-6.4 6.4zM321.963 235.767l-58.889 0.009c-3.533 0-6.4-2.867-6.4-6.4s2.867-6.4 6.4-6.4l58.889-0.009c3.533 0 6.4 2.867 6.4 6.4s-2.85 6.4-6.4 6.4zM321.963 208.819h-58.889c-3.533 0-6.4-2.867-6.4-6.4s2.867-6.4 6.4-6.4h58.889c3.533 0 6.4 2.867 6.4 6.4s-2.85 6.4-6.4 6.4zM321.963 181.862h-58.889c-3.533 0-6.4-2.867-6.4-6.4s2.867-6.4 6.4-6.4h58.889c3.533 0 6.4 2.867 6.4 6.4s-2.85 6.4-6.4 6.4zM321.963 154.897h-58.889c-3.533 0-6.4-2.867-6.4-6.4 0-3.524 2.867-6.4 6.4-6.4h58.889c3.533 0 6.4 2.876 6.4 6.4 0 3.533-2.85 6.4-6.4 6.4z" />
<glyph unicode="&#x5b;" d="M375.066-8.533h-238.14c-3.533 0-6.4 2.867-6.4 6.4v408.533c0 3.533 2.867 6.4 6.4 6.4h238.14c3.533 0 6.4-2.867 6.4-6.4v-408.533c0-3.533-2.868-6.4-6.4-6.4zM143.326 4.267h225.34v395.733h-225.34v-395.733z" />
<glyph unicode="&#x5c;" d="M105.165 70.255c4.685-1.766 10.889-3.388 18.287-4.89 29.235-5.888 77.858-9.498 132.548-9.498 54.682 0 103.305 3.61 132.548 9.498 7.381 1.502 13.602 3.132 18.287 4.898 1.775 0.469 3.447 1.118 5.103 1.818 14.012 5.939 23.407 19.686 23.407 35.251v30.268c0 14.848-8.491 27.733-20.864 34.116 4.309-2.944 5.726-6.127 5.726-9.583 0-3.098-1.143-5.965-4.446-8.653 3.652-4.309 5.931-9.805 5.931-15.881v-30.268c0-11.298-7.646-21.154-18.611-23.953-0.256-0.060-0.512-0.154-0.777-0.239-20.864-8.020-81.024-13.626-146.304-13.626-65.271 0-125.431 5.598-146.304 13.628-0.247 0.094-0.503 0.179-0.759 0.239-10.965 2.799-18.62 12.646-18.62 23.953v30.268c0 6.067 2.287 11.563 5.931 15.881-3.311 2.679-4.454 5.547-4.454 8.653 0 3.447 1.417 6.63 5.709 9.583-12.356-6.4-20.838-19.277-20.838-34.116v-30.268c0-15.565 9.395-29.303 23.39-35.251 1.654-0.702 3.335-1.35 5.11-1.828zM91.793 162.133c0-3.098 1.143-5.965 4.454-8.653 6.084-4.924 19.601-9.182 47.565-12.902 30.020-3.977 69.854-6.17 112.188-6.17 42.325 0 82.167 2.193 112.179 6.17 27.964 3.721 41.481 7.987 47.565 12.902 3.311 2.679 4.446 5.547 4.446 8.653 0 3.456-1.417 6.639-5.726 9.583-6.613 4.531-20.122 8.482-46.293 11.947-30.004 3.985-69.846 6.187-112.171 6.187-42.334 0-82.167-2.202-112.188-6.187-26.18-3.465-39.689-7.424-46.31-11.947-4.292-2.952-5.709-6.135-5.709-9.583zM403.917 162.133c-14.319-6.46-67.729-14.063-147.917-14.063s-133.606 7.612-147.917 14.063c14.31 6.451 67.729 14.063 147.917 14.063s133.598-7.611 147.917-14.063z" />
<glyph unicode="&#x5d;" d="M420.198 161.937c0-3.089-1.135-5.965-4.446-8.644 3.652-4.309 5.931-9.813 5.931-15.889v-30.259c0-11.315-7.646-21.154-18.611-23.953-0.256-0.068-0.512-0.154-0.777-0.247-21.18-8.149-79.974-13.619-146.304-13.619s-125.124 5.47-146.304 13.619c-0.247 0.102-0.512 0.179-0.768 0.247-10.965 2.782-18.62 12.629-18.62 23.953v30.259c0 6.076 2.287 11.58 5.931 15.881-3.311 2.679-4.454 5.555-4.454 8.653 0 3.465 1.425 6.647 5.751 9.6-12.382-6.383-20.881-19.268-20.881-34.133v-30.259c0-15.582 9.395-29.321 23.398-35.251 1.655-0.7 3.337-1.365 5.111-1.835 4.685-1.749 10.889-3.379 18.287-4.881 29.218-5.897 77.833-9.498 132.54-9.498 54.682 0 103.305 3.601 132.548 9.498 7.381 1.502 13.602 3.132 18.287 4.881 1.775 0.469 3.465 1.135 5.111 1.835 14.003 5.931 23.398 19.669 23.398 35.251v30.259c0 14.865-8.508 27.759-20.89 34.15 4.337-2.953 5.762-6.153 5.762-9.618zM406.835 171.213c-4.685-1.766-10.897-3.396-18.287-4.898 6.929-1.451 12.169-2.953 15.351-4.386-14.302-6.451-67.712-14.063-147.9-14.063s-133.606 7.62-147.908 14.063c3.191 1.434 8.422 2.935 15.36 4.386-7.39 1.502-13.602 3.123-18.287 4.89-1.775 0.478-3.456 1.126-5.111 1.826-0.93-0.495-1.775-0.99-2.509-1.502-4.326-2.953-5.751-6.135-5.751-9.6 0-3.089 1.143-5.965 4.454-8.653 6.084-4.915 19.601-9.182 47.565-12.894 30.020-3.977 69.854-6.178 112.188-6.178 42.325 0 82.167 2.202 112.179 6.178 27.964 3.712 41.481 7.979 47.565 12.902 3.319 2.671 4.446 5.547 4.446 8.644 0 3.465-1.425 6.665-5.751 9.617-0.751 0.503-1.587 0.998-2.517 1.485-1.639-0.699-3.312-1.348-5.087-1.817zM105.165 171.204c4.685-1.766 10.889-3.388 18.287-4.89 29.235-5.888 77.858-9.498 132.548-9.498 54.682 0 103.305 3.61 132.548 9.498 7.381 1.502 13.602 3.132 18.287 4.898 1.775 0.469 3.447 1.118 5.103 1.818 14.012 5.939 23.407 19.686 23.407 35.251v30.259c0 14.848-8.491 27.733-20.864 34.125 4.309-2.944 5.726-6.127 5.726-9.591 0-3.089-1.143-5.965-4.446-8.644 3.652-4.309 5.931-9.813 5.931-15.889v-30.259c0-11.298-7.646-21.154-18.611-23.953-0.256-0.060-0.512-0.154-0.777-0.239-20.864-8.022-81.024-13.62-146.304-13.62-65.271 0-125.431 5.598-146.304 13.628-0.247 0.094-0.503 0.179-0.759 0.239-10.965 2.799-18.62 12.646-18.62 23.953v30.259c0 6.076 2.287 11.571 5.931 15.889-3.311 2.679-4.454 5.555-4.454 8.644 0 3.456 1.417 6.639 5.709 9.583-12.356-6.391-20.838-19.268-20.838-34.116v-30.259c0-15.565 9.395-29.303 23.39-35.251 1.654-0.708 3.335-1.357 5.11-1.835zM91.793 263.083c0-3.089 1.143-5.965 4.454-8.644 6.084-4.924 19.601-9.182 47.565-12.894 30.020-3.977 69.854-6.178 112.188-6.178 42.325 0 82.167 2.193 112.179 6.178 27.964 3.712 41.481 7.979 47.565 12.902 3.311 2.679 4.446 5.547 4.446 8.644 0 3.465-1.417 6.647-5.726 9.591-6.613 4.523-20.122 8.482-46.293 11.947-30.004 3.977-69.846 6.17-112.171 6.17-42.334 0-82.167-2.193-112.188-6.178-26.18-3.473-39.689-7.433-46.31-11.955-4.292-2.944-5.709-6.127-5.709-9.583zM403.917 263.083c-14.319-6.451-67.729-14.063-147.917-14.063s-133.606 7.612-147.917 14.063c14.31 6.451 67.729 14.063 147.917 14.063s133.598-7.612 147.917-14.063z" />
<glyph unicode="&#x5e;" d="M237.687 228.625h192.444v169.523l-192.444-26.897zM228.881 228.625v141.389l-147.021-20.514v-120.875zM228.881 219.802h-147.021v-121.31l147.021-20.531zM237.687 219.802v-143.070l192.444-26.88v169.95z" />
<glyph unicode="&#x5f;" d="M386.101-17.76c131.281 0 237.709 106.428 237.709 237.709s-106.428 237.709-237.709 237.709c-131.281 0-237.709-106.428-237.709-237.709s106.429-237.709 237.709-237.709zM436.661 367.789v-295.674l-158.163 147.834 158.163 147.84z" horiz-adv-x="791" />
<glyph unicode="&#x60;" d="M208.538 110.933c-3.533 0-6.4 2.867-6.4 6.4v213.333c0 3.533 2.867 6.4 6.4 6.4s6.4-2.867 6.4-6.4v-213.333c0-3.532-2.868-6.4-6.4-6.4zM303.471 110.933c-3.533 0-6.4 2.867-6.4 6.4v213.333c0 3.533 2.867 6.4 6.4 6.4s6.4-2.867 6.4-6.4v-213.333c0-3.532-2.867-6.4-6.4-6.4z" />
<glyph unicode="&#x61;" d="M158.481 105.822c-1.109 0-2.21 0.282-3.2 0.87-1.98 1.135-3.2 3.251-3.2 5.53v224.7c0 2.287 1.22 4.395 3.2 5.547 1.98 1.135 4.429 1.143 6.391 0l195.038-112.325c1.971-1.143 3.209-3.26 3.209-5.547 0-2.295-1.237-4.403-3.209-5.538l-195.037-112.367c-0.982-0.58-2.091-0.87-3.192-0.87zM164.881 325.862v-202.555l175.804 101.282-175.804 101.273z" />
<glyph unicode="&#x62;" d="M130.85 311.603v-286.95h250.325v286.95h-250.325zM203.341 71.979c0-7.586-6.153-13.73-13.739-13.73-7.612 0-13.722 6.153-13.722 13.73l0.001 192.315c0 7.578 6.118 13.73 13.722 13.73 7.595 0 13.739-6.161 13.739-13.73l-0.001-192.315zM269.73 71.979c0-7.586-6.178-13.73-13.722-13.73-7.578 0-13.747 6.153-13.747 13.73v192.315c0 7.578 6.178 13.73 13.747 13.73 7.552 0 13.722-6.161 13.722-13.73v-192.315zM336.102 71.979c0-7.586-6.135-13.73-13.747-13.73-7.561 0-13.687 6.153-13.687 13.73v192.315c0 7.578 6.135 13.73 13.687 13.73 7.62 0 13.747-6.161 13.747-13.73v-192.315zM349.389 386.031h-186.735c-30.148 0-54.767-18.483-54.767-41.062v-13.141h296.226v13.141c0 22.579-24.644 41.062-54.724 41.062zM288.051 426.291h-64.111c-10.342 0-18.799-8.457-18.799-18.807v-5.999h101.692v5.999c0.009 10.351-8.431 18.807-18.782 18.807z" />
<glyph unicode="&#x63;" d="M418.313 270.967c0 85.786-69.53 155.324-155.315 155.324-85.803 0-155.332-69.538-155.332-155.324 0-19.482 3.575-38.101 10.129-55.287 11.221-29.457 30.737-50.756 54.886-70.221 11.58-9.335 22.528-18.995 32.606-29.961 22.579-24.542 40.883-52.804 55.629-82.628 0.384-0.777 3.413-5.53 2.995-6.451 6.093 13.099 13.449 25.788 20.873 38.153 15.343 25.515 33.664 48.273 55.219 68.813 6.656 6.34 13.474 12.527 20.335 18.662 13.653 12.211 26.675 22.946 36.045 39.057 8.858 15.223 15.727 32.205 19.055 49.527 1.893 9.891 2.875 20.259 2.875 30.336zM262.997 348.902c43.034 0 77.909-34.893 77.909-77.901 0-43.042-34.876-77.926-77.909-77.926s-77.918 34.884-77.918 77.926c0 43.009 34.885 77.901 77.918 77.901z" />
<glyph unicode="&#x64;" d="M463.147 388.83h-414.302c-3.533 0-6.4-2.867-6.4-6.4v-259.866c0-3.533 2.867-6.4 6.4-6.4h175.514v-16.666h-44.8c-2.807 0-5.282-1.826-6.11-4.506l-8.533-27.537c-0.606-1.946-0.247-4.053 0.964-5.692 1.203-1.63 3.115-2.603 5.154-2.603h169.958c2.031 0 3.942 0.964 5.154 2.603 1.212 1.638 1.57 3.746 0.964 5.692l-8.533 27.537c-0.836 2.679-3.311 4.506-6.118 4.506h-44.8v16.666h175.497c3.533 0 6.4 2.867 6.4 6.4l-0.001 259.866c-0.008 3.533-2.876 6.4-6.408 6.4zM281.25 86.699h46.481l4.565-14.737h-152.584l4.565 14.737h46.481c3.533 0 6.4 2.867 6.4 6.4v23.066h37.692v-23.066c0-3.533 2.867-6.4 6.4-6.4zM456.747 128.964h-401.502v247.066h401.502v-247.066zM72.892 139.281h366.225c3.533 0 6.4 2.867 6.4 6.4v213.641c0 3.533-2.867 6.4-6.4 6.4h-366.225c-3.533 0-6.4-2.867-6.4-6.4v-213.641c0-3.533 2.867-6.4 6.4-6.4zM79.292 352.922h353.425v-200.841h-353.425v200.841z" />
<glyph unicode="&#x65;" d="M132.369 428.049l-20.258-20.267 97.519-97.519 20.258 20.267c12.373 12.365 12.39 32.452 0 44.817l-52.693 52.702c-12.365 12.382-32.453 12.382-44.826 0zM362.522 197.905l-20.267-20.275 97.519-97.527 20.284 20.275c12.365 12.373 12.365 32.452 0 44.834l-52.702 52.693c-12.382 12.39-32.444 12.382-44.834 0zM45.764 341.444c-16.077-16.085 31.224-115.481 121.703-205.969 90.487-90.496 189.892-137.779 205.977-121.711 0.546 0.58 3.337 3.354 4.352 4.369l48.87 48.853-97.527 97.52c-16.7-16.674-43.733-16.674-60.416 0.017l-72.226 72.218c-16.666 16.683-16.674 43.708 0 60.399l-97.519 97.51-48.845-48.845c-1.032-1.024-3.797-3.798-4.369-4.361z" />
<glyph unicode="&#x66;" d="M460.766 357.043l-72.346 84.719c-1.22 1.425-2.995 2.244-4.864 2.244h-255.104c-1.869 0-3.652-0.819-4.864-2.244l-72.337-84.727c-1.621-1.894-1.988-4.565-0.947-6.835s3.319-3.721 5.811-3.721h32.017v-179.558c0-32.614 26.53-59.153 59.136-59.153h40.329c0.725-0.427 1.451-0.845 2.185-1.246l60.757-99.465c1.161-1.911 3.234-3.063 5.461-3.063s4.301 1.161 5.461 3.063l60.774 99.447c0.691 0.384 1.417 0.802 2.219 1.263h40.286c32.614 0 59.153 26.53 59.153 59.153v179.567h32.017c2.5 0 4.77 1.451 5.811 3.721 1.033 2.27 0.675 4.941-0.955 6.835zM417.485 359.287c-3.533 0-6.4-2.867-6.4-6.4v-185.967c0-25.557-20.796-46.353-46.353-46.353h-42.018c-1.135 0-2.833-0.64-3.806-1.22-1.408-0.819-2.799-1.63-4.224-2.389-1.015-0.529-1.877-1.331-2.475-2.321l-56.209-91.981-56.192 91.989c-0.597 0.981-1.451 1.792-2.475 2.321-1.553 0.819-3.063 1.715-4.762 2.705-0.981 0.572-2.099 0.887-3.243 0.887h-42.061c-25.549 0-46.336 20.796-46.336 46.353l0.001 185.968c0 3.533-2.867 6.4-6.4 6.4h-24.533l61.406 71.927h249.207l61.406-71.919h-24.533zM366.251 392.329h-220.485c-2.355 0-4.267-1.911-4.267-4.267v-220.476c0-2.355 1.911-4.267 4.267-4.267h220.485c2.355 0 4.267 1.911 4.267 4.267l-0.001 220.476c0 2.355-1.911 4.267-4.266 4.267z" />
<glyph unicode="&#x67;" d="M417.374 444.988h-322.756c-3.533 0-6.4-2.867-6.4-6.4v-322.756c0-3.533 2.867-6.4 6.4-6.4l92.774-0.001 63.138-103.347c1.161-1.911 3.234-3.063 5.461-3.063s4.301 1.161 5.461 3.063l63.147 103.347h92.774c3.533 0 6.4 2.867 6.4 6.4l0.001 322.757c0 3.533-2.867 6.4-6.4 6.4zM410.974 122.231h-89.967c-2.236 0-4.301-1.161-5.461-3.063l-59.554-97.476-59.546 97.476c-1.161 1.911-3.234 3.063-5.461 3.063h-89.967v309.957h309.956v-309.957zM145.758 163.302h220.476c2.355 0 4.267 1.911 4.267 4.267l-0.001 220.484c0 2.355-1.911 4.267-4.267 4.267h-220.475c-2.355 0-4.267-1.911-4.267-4.267v-220.484c0-2.364 1.912-4.267 4.267-4.267z" />
<glyph unicode="&#x68;" d="M451.763 264.141l-155.665 155.656c-22.17 22.161-58.086 22.153-80.23-0.009l-155.631-155.664c-22.17-22.153-22.161-58.078 0.009-80.247l155.647-155.674c22.161-22.144 58.095-22.144 80.239 0.009l155.631 155.681c22.17 22.153 22.17 58.087 0 80.248zM288.469 221.099l0.034 36.745h-60.075v-144.478h-40.414l0.001 144.477v40.414h100.523l0.017 36.796 96.631-56.986-96.717-56.968z" />
<glyph unicode="&#x69;" d="M279.533 448c0 0-100.478 0-133.97 0-60.060 0-116.585-45.503-116.585-98.211 0-53.863 40.941-97.333 102.044-97.333 4.249 0 8.378 0.085 12.421 0.376-3.965-7.593-6.801-16.144-6.801-25.021 0-14.969 8.052-27.105 18.234-37.012-7.693 0-15.121-0.224-23.226-0.224-74.391 0.001-131.65-47.379-131.65-96.51 0-48.389 62.771-78.657 137.167-78.657 84.812 0 131.653 48.122 131.653 96.514 0 38.8-11.448 62.036-46.843 87.067-12.108 8.572-35.265 29.418-35.265 41.672 0 14.36 4.098 21.434 25.714 38.323 22.156 17.312 37.836 41.651 37.836 69.958 0 33.703-15.010 66.549-43.186 77.386h42.477l29.98 21.672zM232.74 120.271c1.063-4.486 1.642-9.103 1.642-13.814 0-39.1-25.196-69.655-97.487-69.655-51.421 0-88.558 32.552-88.558 71.65 0 38.321 46.063 70.222 97.482 69.666 12-0.127 23.184-2.058 33.335-5.345 27.913-19.413 47.938-30.381 53.586-52.502zM150.409 266.112c-34.519 1.032-67.318 38.613-73.276 83.93-5.958 45.333 17.185 80.021 51.694 78.995 34.505-1.037 67.319-37.407 73.279-82.729 5.953-45.33-17.195-81.229-51.697-80.196zM416 352v96h-32v-96h-96v-32h96v-96h32v96h96v32z" />
<glyph unicode="&#x6a;" d="M256 449.604c-94.925 0-172.151-77.227-172.151-172.151 0-63.548 34.688-121.455 90.658-151.569l76.023-124.416c1.161-1.911 3.234-3.063 5.461-3.063s4.301 1.161 5.461 3.063l75.982 124.399c55.996 30.106 90.718 88.021 90.718 151.586-0.001 94.925-77.227 172.151-172.152 172.151zM329.907 136.363c-1.024-0.529-1.886-1.34-2.483-2.33l-71.433-116.958-71.475 116.975c-0.606 0.99-1.459 1.792-2.492 2.33-52.659 27.648-85.376 81.698-85.376 141.073 0 87.868 71.484 159.351 159.351 159.351s159.351-71.484 159.351-159.351c0.001-59.375-32.741-113.442-85.443-141.090zM138.428 278.374c0-64.933 52.639-117.572 117.572-117.572s117.572 52.639 117.572 117.572c0 64.933-52.639 117.572-117.572 117.572s-117.572-52.639-117.572-117.572z" />
<glyph unicode="&#x6b;" d="M142.677 264.482c-22.323 0-40.482-18.159-40.482-40.482s18.159-40.482 40.482-40.482 40.482 18.159 40.482 40.482c0 22.323-18.158 40.482-40.482 40.482zM142.677 196.318c-15.266 0-27.682 12.416-27.682 27.682s12.425 27.682 27.682 27.682 27.682-12.416 27.682-27.682-12.416-27.682-27.682-27.682zM256 264.482c-22.323 0-40.482-18.159-40.482-40.482s18.159-40.482 40.482-40.482c22.323 0 40.482 18.159 40.482 40.482s-18.159 40.482-40.482 40.482zM256 196.318c-15.266 0-27.682 12.416-27.682 27.682s12.416 27.682 27.682 27.682 27.682-12.416 27.682-27.682-12.416-27.682-27.682-27.682zM369.314 264.491c-22.323 0-40.482-18.159-40.482-40.491 0-22.323 18.159-40.491 40.482-40.491 22.332 0 40.499 18.167 40.499 40.491 0 22.332-18.167 40.491-40.499 40.491zM369.314 196.309c-15.266 0-27.682 12.425-27.682 27.691 0 15.275 12.416 27.691 27.682 27.691 15.275 0 27.699-12.425 27.699-27.691s-12.424-27.691-27.699-27.691z" />
<glyph unicode="&#x6c;" d="M103.509 188.851h304.887c19.456 0 35.285 15.821 35.285 35.268v167.168c0 19.456-15.821 35.285-35.285 35.285l-304.887 0.001c-19.447 0-35.268-15.829-35.268-35.285v-167.168c0-19.448 15.821-35.269 35.268-35.269zM81.041 391.287c0 12.399 10.078 22.485 22.468 22.485h304.887c12.399 0 22.485-10.086 22.485-22.485v-167.168c0-12.39-10.086-22.468-22.485-22.468h-304.887c-12.39 0-22.468 10.086-22.468 22.468v167.168zM127.753 219.733h256.418c15.078 0 27.332 12.254 27.332 27.315v121.302c0 15.095-12.262 27.366-27.332 27.366h-256.418c-15.078 0-27.341-12.271-27.341-27.366v-121.301c0-15.062 12.271-27.316 27.341-27.316zM113.212 368.35c0 8.030 6.528 14.566 14.541 14.566h256.418c8.013 0 14.532-6.537 14.532-14.566v-121.301c0-8.004-6.519-14.515-14.532-14.515l-256.418-0.001c-8.013 0-14.541 6.511-14.541 14.515v121.302zM476.587 59.733c-2.398 8.892-23.62 87.168-28.433 98.389-8.363 19.482-33.237 20.045-36.105 20.045h-312.149c-2.807 0-27.691-0.555-36.045-20.045-4.821-11.221-26.035-89.497-28.442-98.389-0.145-0.538-0.222-1.101-0.222-1.664 0-20.207 16.427-36.651 36.617-36.651h368.384c20.19 0 36.617 16.444 36.617 36.651 0 0.564-0.077 1.127-0.222 1.664zM440.192 34.219h-368.384c-12.868 0-23.381 10.266-23.808 23.049 6.647 24.55 23.885 87.125 27.614 95.812 5.205 12.143 24.055 12.288 24.354 12.288h312.149c0.179 0 19.046-0.145 24.269-12.288 3.738-8.687 20.966-71.262 27.605-95.812-0.418-12.784-10.931-23.049-23.799-23.049zM401.391 147.797h-290.816c-1.707 0-16.853-0.35-22.050-12.561-2.671-6.221-14.114-48.444-15.411-53.239-0.145-0.538-0.222-1.101-0.222-1.664 0-12.476 10.146-22.613 22.613-22.613h321.007c12.476 0 22.622 10.138 22.622 22.613 0 0.563-0.077 1.126-0.222 1.673-1.289 4.796-12.749 47.019-15.42 53.222-5.222 12.219-20.36 12.569-22.101 12.569zM94.123 109.952h30.481l-1.954-11.878h-31.863c1.126 4.044 2.26 8.081 3.336 11.878zM137.583 109.952h28.527l-0.99-11.878h-29.5l1.963 11.878zM331.972 122.752h-28.288l-0.461 12.254h27.725l1.024-12.254zM343.782 134.997h26.496l2.014-12.254h-27.494l-1.016 12.254zM220.638 109.952h28.971v-11.878h-29.423l0.452 11.878zM207.377 98.074h-29.414l0.99 11.878h28.868l-0.444-11.878zM262.409 109.952h28.962l0.452-11.878h-29.406v11.878zM304.171 109.952h28.877l0.99-11.878h-29.414l-0.453 11.878zM290.884 122.752h-28.476l0.001 12.245h28.006l0.469-12.245zM249.609 122.752h-28.484l0.461 12.254h28.023v-12.254zM208.316 122.752h-28.288l1.024 12.254h27.733l-0.469-12.254zM167.177 122.752h-27.486l2.022 12.254h26.487l-1.023-12.254zM164.053 85.274l-1.229-14.754h-31.744l2.441 14.754h30.532zM176.896 85.274h29.995l-0.555-14.754h-30.669l1.229 14.754zM219.708 85.274h29.901v-14.754h-30.464l0.563 14.754zM262.409 85.274h29.892l0.555-14.754h-30.447v14.754zM305.101 85.274h30.012l1.237-14.754h-30.686l-0.563 14.754zM347.947 85.274h30.532l2.432-14.754-31.727-0.001-1.237 14.755zM346.871 98.074l-0.99 11.878h28.535l1.954-11.878h-29.499zM387.388 109.952h30.481c1.075-3.789 2.219-7.834 3.345-11.878h-31.863l-1.963 11.878zM401.425 134.997c0.085 0 8.303-0.145 10.291-4.804 0.444-1.024 1.306-3.729 2.423-7.441h-28.859l-2.022 12.254h18.167zM110.609 134.997h18.133l-2.022-12.254h-28.868c1.118 3.729 1.988 6.426 2.432 7.458 1.979 4.66 10.206 4.796 10.325 4.796zM85.709 79.582c0.486 1.792 1.007 3.721 1.553 5.692h33.271l-2.441-14.754h-22.605c-5.153-0.001-9.394 4.002-9.778 9.062zM416.503 70.519h-22.604l-2.432 14.754h33.28c0.538-1.971 1.067-3.9 1.553-5.692-0.384-5.068-4.634-9.062-9.797-9.062z" />
<glyph unicode="&#x6d;" d="M154.3 400.29c-3.533 0-6.4-2.867-6.4-6.4v-315.759c0-3.533 2.867-6.4 6.4-6.4h203.401c3.533 0 6.4 2.867 6.4 6.4l-0.001 315.759c0 3.533-2.867 6.4-6.4 6.4h-203.4zM351.3 84.531h-190.6v302.959h190.601l-0.001-302.959zM336.657 442.334h-161.314c-25.643 0-46.507-20.864-46.507-46.515v-343.637c0-25.651 20.864-46.515 46.507-46.515h161.314c25.634 0 46.49 20.864 46.49 46.515v343.637c0 25.651-20.856 46.515-46.49 46.515zM370.347 52.181c0-18.594-15.113-33.715-33.69-33.715h-161.314c-18.586 0-33.707 15.121-33.707 33.715v343.638c0 18.594 15.121 33.715 33.707 33.715h161.314c18.577 0 33.69-15.121 33.69-33.715v-343.638zM281.754 62.831h-51.516c-8.132 0-14.746-6.613-14.746-14.746v-2.739c0-8.141 6.613-14.754 14.746-14.754h51.516c8.132 0 14.754 6.613 14.754 14.754v2.739c-0.009 8.133-6.622 14.746-14.754 14.746zM283.699 45.346c0-1.084-0.879-1.954-1.954-1.954h-51.516c-1.075 0-1.946 0.879-1.946 1.954v2.739c0 1.050 0.887 1.946 1.946 1.946h51.516c1.075 0 1.954-0.879 1.954-1.946v-2.739zM237.577 408.593h36.847c3.533 0 6.4 2.867 6.4 6.4s-2.867 6.4-6.4 6.4h-36.847c-3.533 0-6.4-2.867-6.4-6.4s2.867-6.4 6.4-6.4zM214.622 415.002c0 0 0 0 0 0 0-3.28 2.659-5.939 5.939-5.939s5.939 2.659 5.939 5.939c0 0 0 0 0 0s0 0 0 0c0 3.28-2.659 5.939-5.939 5.939s-5.939-2.659-5.939-5.939c0 0 0 0 0 0zM289.033 414.993c0-0.019 0-0.043 0-0.065 0-2.366 1.918-4.284 4.284-4.284s4.284 1.918 4.284 4.284c0 0.023 0 0.046 0 0.069 0 0.016 0 0.039 0 0.062 0 2.366-1.918 4.284-4.284 4.284s-4.284-1.918-4.284-4.284c0-0.023 0-0.046 0-0.069zM331.563 414.993c0-0.019 0-0.043 0-0.065 0-2.366 1.918-4.284 4.284-4.284s4.284 1.918 4.284 4.284c0 0.023 0 0.046 0 0.069 0 0.016 0 0.039 0 0.062 0 2.366-1.918 4.284-4.284 4.284s-4.284-1.918-4.284-4.284c0-0.023 0-0.046 0-0.069zM304.538 415.002c0 0 0 0 0 0 0-3.28 2.659-5.939 5.939-5.939s5.939 2.659 5.939 5.939c0 0 0 0 0 0s0 0 0 0c0 3.28-2.659 5.939-5.939 5.939s-5.939-2.659-5.939-5.939c0 0 0 0 0 0z" />
<glyph unicode="&#x6e;" d="M413.935 303.369c3.533 0 6.4 2.867 6.4 6.4v74.377c0 1.698-0.674 3.328-1.877 4.523l-52.164 52.19c-1.203 1.203-2.825 1.877-4.523 1.877l-263.706-0.001c-3.533 0-6.4-2.867-6.4-6.4v-93.286c0-1.698 0.674-3.328 1.877-4.523l6.622-6.613c-4.847-1.033-8.499-5.35-8.499-10.505v-27.947c0-5.197 3.703-9.54 8.602-10.53v-36.565l-5.769-5.76c-1.203-1.203-1.877-2.833-1.877-4.531v-224.41c0-3.533 2.867-6.4 6.4-6.4h314.897c3.533 0 6.4 2.867 6.4 6.4l0.009 268.134c0 1.698-0.674 3.328-1.877 4.523s-2.825 1.877-4.523 1.877h-4.122v17.178h4.13zM407.535 316.169h-4.13c-3.533 0-6.4-2.867-6.4-6.4v-29.978c0-3.533 2.867-6.4 6.4-6.4h4.113v-255.334h-302.097v215.355l5.769 5.76c1.203 1.203 1.877 2.833 1.877 4.531v45.406c0 3.533-2.867 6.4-6.4 6.4h-2.202v23.834h2.202c3.533 0 6.4 2.867 6.4 6.4v8.713c0 1.698-0.674 3.328-1.877 4.523l-6.724 6.724-0.001 84.232h254.652l48.418-48.435v-65.331zM149.376 389.146c-3.533 0-6.4-2.867-6.4-6.4v-147.618c0-3.533 2.867-6.4 6.4-6.4h213.231c3.533 0 6.4 2.867 6.4 6.4v147.618c0 3.533-2.867 6.4-6.4 6.4h-213.231zM226.807 376.346h22.81l-0.009-134.818h-22.835l0.034 134.818zM213.973 241.527h-22.793l0.009 134.818h22.818l-0.034-134.818zM262.417 376.346h22.793l-0.017-134.818h-22.784l0.008 134.818zM298.010 376.346h22.81v-134.818h-22.827l0.017 134.818zM155.776 376.346h22.613l-0.009-134.818h-22.605l0.001 134.818zM356.207 241.527h-22.588v134.819h22.588v-134.819z" />
<glyph unicode="&#x6f;" d="M94.097 343.27c0-9.279 7.522-16.802 16.802-16.802s16.802 7.522 16.802 16.802c0 9.28-7.522 16.802-16.802 16.802s-16.802-7.522-16.802-16.802zM167.168 336.87h250.735c3.533 0 6.4 2.867 6.4 6.4s-2.867 6.4-6.4 6.4h-250.735c-3.533 0-6.4-2.867-6.4-6.4s2.867-6.4 6.4-6.4zM94.097 263.757c0-9.28 7.522-16.802 16.802-16.802s16.802 7.523 16.802 16.802c0 9.28-7.522 16.802-16.802 16.802s-16.802-7.522-16.802-16.802zM417.903 270.157h-250.735c-3.533 0-6.4-2.867-6.4-6.4s2.867-6.4 6.4-6.4h250.735c3.533 0 6.4 2.867 6.4 6.4s-2.867 6.4-6.4 6.4zM94.097 184.252c0-9.279 7.522-16.802 16.802-16.802s16.802 7.522 16.802 16.802c0 9.279-7.522 16.802-16.802 16.802s-16.802-7.522-16.802-16.802zM417.903 190.652h-250.735c-3.533 0-6.4-2.867-6.4-6.4s2.867-6.4 6.4-6.4h250.735c3.533 0 6.4 2.867 6.4 6.4s-2.867 6.4-6.4 6.4zM94.097 104.73c0-9.279 7.522-16.802 16.802-16.802s16.802 7.522 16.802 16.802c0 9.279-7.522 16.802-16.802 16.802s-16.802-7.522-16.802-16.802zM417.903 111.13h-250.735c-3.533 0-6.4-2.867-6.4-6.4s2.867-6.4 6.4-6.4h250.735c3.533 0 6.4 2.867 6.4 6.4s-2.867 6.4-6.4 6.4z" />
<glyph unicode="&#x70;" d="M256 277.888c-49.92 0-90.53-40.61-90.53-90.53s40.61-90.522 90.53-90.522 90.53 40.61 90.53 90.522-40.61 90.53-90.53 90.53zM256 109.636c-42.854 0-77.73 34.867-77.73 77.722s34.867 77.73 77.73 77.73 77.73-34.867 77.73-77.73-34.876-77.722-77.73-77.722zM256 313.634c-69.632 0-126.276-56.644-126.276-126.276 0-69.623 56.644-126.276 126.276-126.276 69.623 0 126.276 56.653 126.276 126.276 0 69.632-56.653 126.276-126.276 126.276zM256 73.882c-62.575 0-113.476 50.91-113.476 113.476 0 62.575 50.901 113.476 113.476 113.476 62.566 0 113.476-50.901 113.476-113.476 0-62.567-50.91-113.476-113.476-113.476zM382.797 443.989h-253.611c-25.071 0-45.466-20.395-45.466-45.466v-349.047c0-25.071 20.412-45.457 45.491-45.457h253.585c25.088 0 45.5 20.395 45.5 45.457l0.001 349.048c0 25.071-20.404 45.465-45.5 45.465zM415.497 49.476c0-18.005-14.669-32.657-32.7-32.657h-253.585c-18.022 0-32.691 14.652-32.691 32.657v349.048c0 18.005 14.652 32.666 32.666 32.666h253.611c18.031 0 32.7-14.652 32.7-32.666l-0.001-349.048zM380.791 407.842h-55.475c-6.955 0-12.621-5.666-12.621-12.621v-31.215c0-6.946 5.658-12.604 12.621-12.604h55.475c6.955 0 12.621 5.658 12.621 12.604v31.215c0.009 6.955-5.666 12.621-12.621 12.621zM380.621 364.203l-55.117-0.196-0.179 31.036 55.296 0.179v-31.019zM256.017 346.206c18.432 0 33.425 14.993 33.425 33.425s-14.993 33.425-33.425 33.425c-18.432 0-33.425-14.993-33.425-33.425s14.993-33.425 33.425-33.425zM256.017 400.256c11.375 0 20.625-9.25 20.625-20.625s-9.25-20.625-20.625-20.625c-11.375 0-20.625 9.25-20.625 20.625s9.25 20.625 20.625 20.625z" />
<glyph unicode="&#x71;" d="M256 443.537c-121.054 0-219.529-98.483-219.529-219.529s98.475-219.528 219.529-219.528 219.537 98.475 219.537 219.529-98.483 219.528-219.537 219.528zM256 17.28c-113.988 0-206.729 92.732-206.729 206.729s92.741 206.728 206.729 206.728 206.737-92.74 206.737-206.729-92.749-206.728-206.737-206.728zM427.298 230.4h-25.259c-3.294 75.58-64.051 136.346-139.631 139.639l0.001 25.251c0 3.533-2.867 6.4-6.4 6.4s-6.4-2.867-6.4-6.4v-25.25c-75.588-3.285-136.354-64.043-139.648-139.639l-25.242-0.001c-3.533 0-6.4-2.867-6.4-6.4s2.867-6.4 6.4-6.4h25.242c3.294-75.588 64.051-136.354 139.648-139.639v-25.25c0-3.533 2.867-6.4 6.4-6.4s6.4 2.867 6.4 6.4v25.25c75.588 3.294 136.346 64.051 139.631 139.639h25.259c3.533 0 6.4 2.867 6.4 6.4s-2.868 6.4-6.401 6.4zM362.88 217.6h26.359c-3.268-68.531-58.3-123.563-126.831-126.839v26.377c0 3.533-2.867 6.4-6.4 6.4s-6.4-2.867-6.4-6.4v-26.377c-68.531 3.268-123.571 58.308-126.847 126.839h26.377c3.533 0 6.4 2.867 6.4 6.4s-2.867 6.4-6.4 6.4h-26.377c3.268 68.531 58.308 123.571 126.848 126.839v-26.368c0-3.533 2.867-6.4 6.4-6.4s6.4 2.867 6.4 6.4v26.368c68.531-3.277 123.563-58.308 126.831-126.839h-26.359c-3.533 0-6.4-2.867-6.4-6.4s2.866-6.4 6.399-6.4zM203.17 223.991c0-29.177 23.653-52.83 52.83-52.83s52.83 23.653 52.83 52.83c0 29.177-23.653 52.83-52.83 52.83s-52.83-23.653-52.83-52.83z" />
<glyph unicode="&#x72;" d="M317.713 270.063c-35.883 0-65.075-29.193-65.075-65.075s29.193-65.084 65.075-65.084 65.084 29.201 65.084 65.084-29.193 65.075-65.084 65.075zM317.713 152.704c-28.826 0-52.275 23.458-52.275 52.284s23.45 52.275 52.275 52.275 52.284-23.458 52.284-52.275-23.458-52.284-52.284-52.284zM317.696 313.506c-59.836 0-108.518-48.683-108.518-108.527s48.683-108.535 108.518-108.535c59.844 0 108.535 48.691 108.535 108.535s-48.691 108.527-108.535 108.527zM317.696 109.252c-52.787 0-95.718 42.94-95.718 95.735 0 52.787 42.94 95.727 95.718 95.727 52.796 0 95.735-42.94 95.735-95.727 0-52.795-42.939-95.735-95.735-95.735zM435.703 345.353h-260.727v14.063c0 11.665-9.489 21.154-21.154 21.154h-42.018c-11.674 0-21.163-9.489-21.163-21.154v-14.063h-14.353c-21.879 0-39.689-17.809-39.689-39.706v-198.494c0-21.897 17.801-39.714 39.689-39.714h359.415c21.888 0 39.697 17.818 39.697 39.714l0.001 198.494c0 21.896-17.81 39.706-39.698 39.706zM462.601 107.153c0-14.839-12.066-26.914-26.897-26.914h-359.416c-14.822 0-26.889 12.075-26.889 26.914v198.494c0 14.839 12.066 26.906 26.889 26.906h20.753c3.533 0 6.4 2.867 6.4 6.4v20.463c0 4.608 3.746 8.354 8.363 8.354h42.018c4.608 0 8.354-3.746 8.354-8.354v-20.463c0-3.533 2.867-6.4 6.4-6.4h267.127c14.831 0 26.897-12.075 26.897-26.906l0.001-198.494z" />
</font>
</defs>
</svg>
